<?xml version="1.0" encoding="utf-8"?>
<!-- Generator: Adobe Illustrator 26.0.1, SVG Export Plug-In . SVG Version: 6.00 Build 0)  -->
<svg version="1.1" id="Calque_1" xmlns="http://www.w3.org/2000/svg" xmlns:xlink="http://www.w3.org/1999/xlink" x="0px" y="0px"
	 width="20px" height="20px" viewBox="0 0 20 20" style="enable-background:new 0 0 20 20;" xml:space="preserve">
<path d="M10.7,10l9.1-9.1c0.2-0.2,0.2-0.5,0-0.7s-0.5-0.2-0.7,0L10,9.3L0.9,0.1C0.7,0,0.3,0,0.1,0.1S0,0.7,0.1,0.9L9.3,10l-9.1,9.1
	c-0.2,0.2-0.2,0.5,0,0.7C0.2,20,0.4,20,0.5,20s0.3,0,0.4-0.1l9.1-9.1l9.1,9.1c0.1,0.1,0.2,0.1,0.4,0.1s0.3,0,0.4-0.1
	c0.2-0.2,0.2-0.5,0-0.7L10.7,10z"/>
</svg>
