<?xml version="1.0" encoding="utf-8"?>
<!-- Generator: Adobe Illustrator 26.0.1, SVG Export Plug-In . SVG Version: 6.00 Build 0)  -->
<svg version="1.1" id="Calque_1" xmlns="http://www.w3.org/2000/svg" xmlns:xlink="http://www.w3.org/1999/xlink" x="0px" y="0px"
	 width="39.3px" height="39.3px" viewBox="0 0 39.3 39.3" style="enable-background:new 0 0 39.3 39.3;" xml:space="preserve">
<style type="text/css">
	.st0{fill:url(#SVGID_1_);}
	.st1{fill:url(#SVGID_00000085963869828230842210000007529610812765839009_);}
</style>
<g>
	<linearGradient id="SVGID_1_" gradientUnits="userSpaceOnUse" x1="6.1519" y1="6.1519" x2="32.8455" y2="32.8455">
		<stop  offset="0" style="stop-color:#CA8723"/>
		<stop  offset="0.5" style="stop-color:#E3B04D"/>
		<stop  offset="0.999" style="stop-color:#EECE66"/>
	</linearGradient>
	<path class="st0" d="M19.6,0C8.8,0,0,8.8,0,19.6s8.8,19.6,19.6,19.6s19.6-8.8,19.6-19.6S30.5,0,19.6,0z M19.6,37.3
		C9.9,37.3,2,29.4,2,19.6S9.9,2,19.6,2s17.6,7.9,17.6,17.6S29.4,37.3,19.6,37.3z"/>
	
		<linearGradient id="SVGID_00000168796265746281861330000001204303796841850780_" gradientUnits="userSpaceOnUse" x1="6.617" y1="5.6867" x2="33.3107" y2="32.3804">
		<stop  offset="0" style="stop-color:#CA8723"/>
		<stop  offset="0.5" style="stop-color:#E3B04D"/>
		<stop  offset="0.999" style="stop-color:#EECE66"/>
	</linearGradient>
	<path style="fill:url(#SVGID_00000168796265746281861330000001204303796841850780_);" d="M17.2,13.6c1.1-0.8,2.4-1.1,3.9-1.1
		c1.3,0,2.5,0.3,3.4,0.9c0.9,0.6,1.7,1.4,2.2,2.5h2.8c-0.7-1.8-1.7-3.1-3.2-4.1c-1.5-1-3.2-1.4-5.2-1.4c-1.4,0-2.7,0.3-3.9,0.8
		c-1.2,0.5-2.2,1.3-3.1,2.3c-0.9,1-1.5,2.1-1.9,3.4H9.8v1.7H12c-0.1,0.4-0.1,0.9-0.1,1.3c0,0.5,0,0.9,0.1,1.4H9.8v1.7h2.6
		c0.6,1.9,1.7,3.4,3.3,4.6c1.6,1.1,3.4,1.7,5.5,1.7c2,0,3.7-0.5,5.2-1.4c1.5-1,2.6-2.3,3.2-4.1h-2.8c-0.5,1.1-1.2,1.9-2.2,2.5
		c-1,0.6-2.1,0.9-3.4,0.9c-1.4,0-2.7-0.4-3.8-1.1c-1.1-0.7-1.9-1.7-2.4-3h6.2V21h-6.6c-0.1-0.4-0.1-0.9-0.1-1.4c0-0.4,0-0.9,0.1-1.3
		h6.6v-1.7h-6.2C15.3,15.4,16.1,14.3,17.2,13.6z"/>
</g>
</svg>
