<?xml version="1.0" encoding="utf-8"?>
<!-- Generator: Adobe Illustrator 26.0.1, SVG Export Plug-In . SVG Version: 6.00 Build 0)  -->
<svg version="1.1" id="Calque_1" xmlns="http://www.w3.org/2000/svg" xmlns:xlink="http://www.w3.org/1999/xlink" x="0px" y="0px"
	 width="42px" height="33.3px" viewBox="0 0 42 33.3" style="enable-background:new 0 0 42 33.3;" xml:space="preserve">
<style type="text/css">
	.st0{fill:url(#SVGID_1_);}
</style>
<linearGradient id="SVGID_1_" gradientUnits="userSpaceOnUse" x1="7.7648" y1="3.4169" x2="35.2264" y2="30.8785">
	<stop  offset="0" style="stop-color:#CA8723"/>
	<stop  offset="0.5" style="stop-color:#E3B04D"/>
	<stop  offset="0.999" style="stop-color:#EECE66"/>
</linearGradient>
<path class="st0" d="M41.7,10.7l-5.2-5.2c0,0,0,0-0.1,0c0,0-0.1-0.1-0.1-0.1c0,0-0.1,0-0.1-0.1c0,0,0,0-0.1,0c0,0,0,0,0,0
	c0,0,0,0-0.1,0L20.4,0.1C20.2,0,20,0,19.8,0.1L5.9,5.3c0,0,0,0,0,0c0,0,0,0,0,0c0,0-0.1,0-0.1,0.1c0,0-0.1,0.1-0.1,0.1c0,0,0,0,0,0
	l-5.2,5.2C0.1,11,0,11.3,0,11.6c0.1,0.3,0.3,0.6,0.6,0.7l4.6,1.7v13c0,0.4,0.3,0.8,0.6,0.9l13.9,5.2c0,0,0,0,0,0
	c0.1,0,0.2,0.1,0.3,0.1c0.1,0,0.2,0,0.3,0c0,0,0,0,0,0L36.1,28c0.4-0.1,0.7-0.5,0.7-0.9V13.9l4.5-1.5c0.3-0.1,0.6-0.4,0.7-0.7
	C42.1,11.3,42,11,41.7,10.7z M20.2,2.1l12.5,4.2l-12.5,4.2L9.1,6.2L20.2,2.1z M6.5,7.4l11.9,4.4l-3.7,3.7L2.8,11L6.5,7.4z M7.2,14.8
	l7.3,2.8c0.1,0,0.2,0.1,0.4,0.1c0.3,0,0.5-0.1,0.7-0.3l3.5-3.5v17L7.2,26.4V14.8z M34.8,26.4l-13.7,4.6V13.8l3.5,3.5
	c0.2,0.2,0.4,0.3,0.7,0.3c0.1,0,0.2,0,0.3-0.1l9.1-3V26.4z M25.6,15.5L22,11.9l13.5-4.5l3.6,3.6L25.6,15.5z"/>
</svg>
