<?xml version="1.0" encoding="utf-8"?>
<!-- Generator: Adobe Illustrator 26.0.1, SVG Export Plug-In . SVG Version: 6.00 Build 0)  -->
<svg version="1.1" id="Calque_1" xmlns="http://www.w3.org/2000/svg" xmlns:xlink="http://www.w3.org/1999/xlink" x="0px" y="0px"
	 width="40px" height="30.9px" viewBox="0 0 40 30.9" style="enable-background:new 0 0 40 30.9;" xml:space="preserve">
<style type="text/css">
	.st0{fill:url(#SVGID_1_);}
</style>
<linearGradient id="SVGID_1_" gradientUnits="userSpaceOnUse" x1="0.8146" y1="2.1256" x2="31.9259" y2="33.237">
	<stop  offset="0" style="stop-color:#CA8723"/>
	<stop  offset="0.5" style="stop-color:#E3B04D"/>
	<stop  offset="0.999" style="stop-color:#EECE66"/>
</linearGradient>
<path class="st0" d="M39,18.9c-0.1,0-0.1-0.1-0.2-0.1L35,16.9l-0.7-4.6c-0.1-1.4-1.3-2.4-2.6-2.4h-6.5V2.7c0-1.5-1.2-2.7-2.7-2.7
	H2.7C1.2,0,0,1.2,0,2.7v23.1c0,0.6,0.4,1,1,1h3.2c0.5,2.4,2.5,4.1,5,4.1s4.6-1.8,5-4.1h9.8h3.2c0.5,2.4,2.5,4.1,5,4.1s4.6-1.8,5-4.1
	H39c0.6,0,1-0.4,1-1v-4.9C40,20.1,39.6,19.4,39,18.9z M2,2.7C2,2.3,2.3,2,2.7,2h19.8c0.4,0,0.7,0.3,0.7,0.7v8.3v13.9h-8.8
	c-0.5-2.4-2.5-4.1-5-4.1s-4.6,1.8-5,4.1H2V2.7z M9.3,28.9c-1.7,0-3.1-1.4-3.1-3.1s1.4-3.1,3.1-3.1s3.1,1.4,3.1,3.1S11,28.9,9.3,28.9
	z M32.4,28.9c-1.7,0-3.1-1.4-3.1-3.1s1.4-3.1,3.1-3.1c1.7,0,3.1,1.4,3.1,3.1S34.1,28.9,32.4,28.9z M38,24.8h-0.6
	c-0.5-2.4-2.5-4.1-5-4.1s-4.6,1.8-5,4.1h-2.2V11.9h6.5c0.3,0,0.6,0.2,0.6,0.6l0.7,5.1c0,0.3,0.3,0.6,0.6,0.8l4.2,2.1
	c0.1,0.1,0.2,0.3,0.2,0.4V24.8z"/>
</svg>
