<?xml version="1.0" encoding="utf-8"?>
<!-- Generator: Adobe Illustrator 26.0.1, SVG Export Plug-In . SVG Version: 6.00 Build 0)  -->
<svg version="1.1" id="Calque_1" xmlns="http://www.w3.org/2000/svg" xmlns:xlink="http://www.w3.org/1999/xlink" x="0px" y="0px"
	 width="40px" height="40px" viewBox="0 0 40 40" style="enable-background:new 0 0 40 40;" xml:space="preserve">
<style type="text/css">
	.st0{fill:url(#SVGID_1_);}
	.st1{fill:url(#SVGID_00000006687733781733987660000009951125148946392470_);}
</style>
<g>
	<linearGradient id="SVGID_1_" gradientUnits="userSpaceOnUse" x1="5.7026" y1="5.7026" x2="34.3392" y2="34.3392">
		<stop  offset="0" style="stop-color:#CA8723"/>
		<stop  offset="0.5" style="stop-color:#E3B04D"/>
		<stop  offset="0.999" style="stop-color:#EECE66"/>
	</linearGradient>
	<path class="st0" d="M20,0C9,0,0,9,0,20s9,20,20,20s20-9,20-20S31,0,20,0z M20,38c-9.9,0-18-8.1-18-18S10.1,2,20,2s18,8.1,18,18
		S29.9,38,20,38z"/>
	
		<linearGradient id="SVGID_00000023999390060710844320000013658773737743280559_" gradientUnits="userSpaceOnUse" x1="8.7253" y1="2.6799" x2="37.362" y2="31.3165">
		<stop  offset="0" style="stop-color:#CA8723"/>
		<stop  offset="0.5" style="stop-color:#E3B04D"/>
		<stop  offset="0.999" style="stop-color:#EECE66"/>
	</linearGradient>
	<path style="fill:url(#SVGID_00000023999390060710844320000013658773737743280559_);" d="M21,19.6V7.9c0-0.6-0.4-1-1-1s-1,0.4-1,1
		V20c0,0.1,0,0.3,0.1,0.4c0.1,0.1,0.1,0.2,0.2,0.3l8.6,8.6c0.2,0.2,0.5,0.3,0.7,0.3s0.5-0.1,0.7-0.3c0.4-0.4,0.4-1,0-1.4L21,19.6z"
		/>
</g>
</svg>
