<?xml version="1.0" encoding="utf-8"?>
<!-- Generator: Adobe Illustrator 25.2.3, SVG Export Plug-In . SVG Version: 6.00 Build 0)  -->
<svg version="1.1" id="transport" xmlns="http://www.w3.org/2000/svg" xmlns:xlink="http://www.w3.org/1999/xlink" x="0px" y="0px"
	 viewBox="0 0 24.5 24.3" style="enable-background:new 0 0 24.5 24.3;" xml:space="preserve">
<style type="text/css">
	.st0{fill:url(#SVGID_1_);}
	.st1{fill:url(#SVGID_2_);}
</style>
<g>
	<linearGradient id="SVGID_1_" gradientUnits="userSpaceOnUse" x1="0.2075" y1="13.443" x2="21.7075" y2="13.443">
		<stop  offset="0" style="stop-color:#CA8723"/>
		<stop  offset="1" style="stop-color:#EECE66"/>
	</linearGradient>
	<path class="st0" d="M21,12.7c-0.4,0-0.8,0.3-0.8,0.8v8c0,0.7-0.6,1.2-1.2,1.2H3c-0.7,0-1.2-0.6-1.2-1.2v-16c0-0.7,0.6-1.2,1.2-1.2
		h8c0.4,0,0.8-0.3,0.8-0.7S11.4,2.7,11,2.7H3c-1.5,0-2.8,1.2-2.8,2.7v16c0,1.5,1.2,2.8,2.8,2.8h16c1.5,0,2.8-1.2,2.8-2.8v-8
		C21.7,13,21.4,12.7,21,12.7z"/>
	<linearGradient id="SVGID_2_" gradientUnits="userSpaceOnUse" x1="8.2075" y1="8.15" x2="24.2925" y2="8.15">
		<stop  offset="0" style="stop-color:#CA8723"/>
		<stop  offset="1" style="stop-color:#EECE66"/>
	</linearGradient>
	<path class="st1" d="M23.8,3.2l-2.6-2.6c-0.7-0.7-1.8-0.7-2.5,0L9.4,9.9c-0.1,0.1-0.2,0.3-0.2,0.5v3.7l-0.8,0.8
		c-0.3,0.3-0.3,0.8,0,1.1c0.1,0.1,0.3,0.2,0.5,0.2s0.4-0.1,0.5-0.2l0.8-0.8H14c0.2,0,0.4-0.1,0.5-0.2l7.2-7.2c0,0,0,0,0,0s0,0,0,0
		l2.1-2.1c0.3-0.3,0.5-0.8,0.5-1.2C24.3,4,24.1,3.5,23.8,3.2z M13.6,13.7h-2.9v-2.9l6.5-6.5l2.9,2.9L13.6,13.7z M22.7,4.6l-1.6,1.6
		l-2.9-2.9l1.6-1.6c0.1-0.1,0.3-0.1,0.4,0l2.6,2.6c0.1,0.1,0.1,0.1,0.1,0.2C22.8,4.5,22.8,4.6,22.7,4.6z"/>
</g>
</svg>
