<?xml version="1.0" encoding="utf-8"?>
<!-- Generator: Adobe Illustrator 26.0.1, SVG Export Plug-In . SVG Version: 6.00 Build 0)  -->
<svg version="1.1" id="Calque_1" xmlns="http://www.w3.org/2000/svg" xmlns:xlink="http://www.w3.org/1999/xlink" x="0px" y="0px"
	 viewBox="0 0 23.5 24.5" style="enable-background:new 0 0 23.5 24.5;" xml:space="preserve">
<g>
	<path d="M21.8,0h-15C5.8,0,5,0.8,5,1.8V10H1.8c-1,0-1.8,0.8-1.8,1.8v9.5c0,1.8,1.5,3.2,3.2,3.2c0.1,0,0.2,0,0.3,0
		c0.1,0,0.1,0,0.2,0h2h3h11c2.1,0,3.8-1.7,3.8-3.8v-19C23.5,0.8,22.7,0,21.8,0z M1.5,21.2v-9.5c0-0.1,0.1-0.2,0.2-0.2H5v9.2v0.5
		c0,1-0.8,1.8-1.8,1.8S1.5,22.2,1.5,21.2z M22,20.8c0,1.2-1,2.2-2.2,2.2h-11H6c0.3-0.5,0.5-1.1,0.5-1.8v-0.5v-10v-9
		c0-0.1,0.1-0.2,0.2-0.2h15c0.1,0,0.2,0.1,0.2,0.2V20.8z"/>
	<path d="M18.8,4h-9C9.3,4,9,4.3,9,4.8s0.3,0.8,0.8,0.8h9c0.4,0,0.8-0.3,0.8-0.8S19.2,4,18.8,4z"/>
	<path d="M18.8,8h-9C9.3,8,9,8.3,9,8.8s0.3,0.8,0.8,0.8h9c0.4,0,0.8-0.3,0.8-0.8S19.2,8,18.8,8z"/>
	<path d="M18.8,12h-9C9.3,12,9,12.3,9,12.8s0.3,0.8,0.8,0.8h9c0.4,0,0.8-0.3,0.8-0.8S19.2,12,18.8,12z"/>
</g>
</svg>
