<?xml version="1.0" encoding="utf-8"?>
<!-- Generator: Adobe Illustrator 26.0.1, SVG Export Plug-In . SVG Version: 6.00 Build 0)  -->
<svg version="1.1" id="Layer_2" xmlns="http://www.w3.org/2000/svg" xmlns:xlink="http://www.w3.org/1999/xlink" x="0px" y="0px"
	 viewBox="0 0 19.6 20.8" style="enable-background:new 0 0 19.6 20.8;" xml:space="preserve">
<style type="text/css">
	.st0{fill:#1A1A1A;}
</style>
<g>
	<g>
		<g>
			<path class="st0" d="M17.3,14.1c-0.2,0-0.3-0.1-0.3-0.3V5.3h-3.7l-1.6,0.9c0,0-0.1,0-0.2,0H6.2v0.8c0,0.2-0.1,0.3-0.3,0.3
				S5.6,7.2,5.6,7.1V5.9c0-0.2,0.1-0.3,0.3-0.3h5.6l1.6-0.9c0,0,0.1,0,0.2,0h4.1c0.2,0,0.3,0.1,0.3,0.3v8.8
				C17.6,13.9,17.5,14.1,17.3,14.1z"/>
			<path d="M17.3,14.3c-0.3,0-0.6-0.2-0.6-0.6V5.5h-3.4l-1.5,0.9c-0.1,0-0.2,0.1-0.3,0.1H6.5v0.6c0,0.3-0.2,0.6-0.6,0.6
				S5.4,7.4,5.4,7.1V5.9c0-0.3,0.2-0.6,0.6-0.6h5.6L13,4.5c0.1,0,0.2-0.1,0.3-0.1h4.1c0.3,0,0.6,0.2,0.6,0.6v8.8
				C17.9,14.1,17.6,14.3,17.3,14.3z M13.3,5h4v8.7c0,0.1,0.1,0.1,0.1,0V5c0,0,0-0.1-0.1-0.1h-4.1l-1.7,1H5.9c0,0-0.1,0-0.1,0.1v1.1
				c0,0.1,0.1,0.1,0.1,0V6h5.6L13.3,5z"/>
		</g>
	</g>
	<g>
		<g>
			<path class="st0" d="M16.9,16.1H5.5c-0.1,0-0.2-0.1-0.3-0.2L2,8.7c0-0.1,0-0.2,0-0.3c0.1-0.1,0.2-0.1,0.3-0.1h11.4
				c0.1,0,0.2,0.1,0.3,0.2l3.2,7.2c0,0.1,0,0.2,0,0.3C17.1,16,17,16.1,16.9,16.1z M5.7,15.5h10.7l-2.9-6.6H2.8L5.7,15.5z"/>
			<path d="M16.9,16.3H5.5c-0.2,0-0.4-0.1-0.5-0.3L1.8,8.8c-0.1-0.2-0.1-0.4,0-0.5C1.9,8.1,2.1,8,2.3,8h11.4c0.2,0,0.4,0.1,0.5,0.3
				l3.2,7.2c0.1,0.2,0.1,0.4,0,0.5C17.3,16.3,17.1,16.3,16.9,16.3z M2.2,8.6l3.2,7.2l11.4,0c0,0,0,0,0,0l-3.2-7.3L2.2,8.6L2,8.7
				L2.2,8.6z M16.8,15.7H5.5L2.4,8.6h11.3L16.8,15.7z M5.9,15.2h10.2l-2.7-6.1H3.1L5.9,15.2z"/>
		</g>
	</g>
</g>
</svg>
