<?xml version="1.0" encoding="utf-8"?>
<!-- Generator: Adobe Illustrator 26.0.1, SVG Export Plug-In . SVG Version: 6.00 Build 0)  -->
<svg version="1.1" id="Layer_2" xmlns="http://www.w3.org/2000/svg" xmlns:xlink="http://www.w3.org/1999/xlink" x="0px" y="0px"
	 viewBox="0 0 19.6 20.8" style="enable-background:new 0 0 19.6 20.8;" xml:space="preserve">
<style type="text/css">
	.st0{fill:#1A1A1A;stroke:#000000;stroke-width:0.5;stroke-miterlimit:10;}
</style>
<g>
	<g>
		<g>
			<path class="st0" d="M4.9,6.2c-1,0-1.7-0.8-1.7-1.7v-1c0-1,0.8-1.7,1.7-1.7s1.7,0.8,1.7,1.7v1C6.7,5.5,5.9,6.2,4.9,6.2z M4.9,2.2
				c-0.7,0-1.2,0.6-1.2,1.2v1c0,0.7,0.6,1.2,1.2,1.2s1.2-0.6,1.2-1.2v-1C6.2,2.8,5.6,2.2,4.9,2.2z"/>
		</g>
		<g>
			<path class="st0" d="M6.9,19H3c-0.1,0-0.2-0.1-0.2-0.2V14c-1.2-0.1-1.6-1-1.6-1.5l0-3c0-1.6,1.3-2.9,2.9-2.9h7.5
				c0.1,0,0.1,0,0.2,0.1c0,0.1,0.1,0.1,0.1,0.2C11.8,7.6,11.2,9,9.7,9L7.1,9v9.8C7.1,18.9,7,19,6.9,19z M3.3,18.5h3.3V8.8
				c0-0.1,0-0.1,0.1-0.2c0,0,0.1-0.1,0.2-0.1l0,0l2.8,0c1.2,0,1.6-1,1.7-1.5H4.1c-1.3,0-2.4,1.1-2.4,2.4v3c0,0.1,0.1,0.9,1.1,1V9.7
				c0-0.1,0.1-0.2,0.2-0.2c0.1,0,0.2,0.1,0.2,0.2V18.5z"/>
		</g>
		<g>
			<path class="st0" d="M4.9,19c-0.1,0-0.2-0.1-0.2-0.2v-5.3c0-0.1,0.1-0.2,0.2-0.2c0.1,0,0.2,0.1,0.2,0.2v5.3
				C5.2,18.9,5.1,19,4.9,19z"/>
		</g>
	</g>
	<g>
		<path class="st0" d="M17.6,12.6H8.7c-0.1,0-0.2-0.1-0.2-0.2c0-0.1,0.1-0.2,0.2-0.2h8.6V4.2H7.5C7.4,4.2,7.2,4.1,7.2,4
			c0-0.1,0.1-0.2,0.2-0.2h10.1c0.1,0,0.2,0.1,0.2,0.2v8.4C17.8,12.5,17.7,12.6,17.6,12.6z"/>
	</g>
	<g>
		<path class="st0" d="M11.7,19c-0.1,0-0.2-0.1-0.2-0.2v-6.5c0-0.1,0.1-0.2,0.2-0.2c0.1,0,0.2,0.1,0.2,0.2v6.5
			C11.9,18.9,11.8,19,11.7,19z"/>
	</g>
	<g>
		<path class="st0" d="M14.1,19c-0.1,0-0.2-0.1-0.2-0.2L11.7,13l-2.2,5.8c0,0.1-0.2,0.2-0.3,0.1c-0.1,0-0.2-0.2-0.1-0.3l2.5-6.5
			c0-0.1,0.1-0.2,0.2-0.2l0,0c0.1,0,0.2,0.1,0.2,0.2l2.5,6.5C14.4,18.8,14.4,19,14.1,19C14.2,19,14.2,19,14.1,19z"/>
	</g>
</g>
</svg>
