<?xml version="1.0" encoding="utf-8"?>
<!-- Generator: Adobe Illustrator 26.0.1, SVG Export Plug-In . SVG Version: 6.00 Build 0)  -->
<svg version="1.1" id="Calque_1" xmlns="http://www.w3.org/2000/svg" xmlns:xlink="http://www.w3.org/1999/xlink" x="0px" y="0px"
	 viewBox="0 0 17.4 20.5" style="enable-background:new 0 0 17.4 20.5;" xml:space="preserve">
<style type="text/css">
	.st0{fill:url(#SVGID_1_);}
	.st1{fill:url(#SVGID_00000155116129234515810040000001268860798105010063_);}
</style>
<linearGradient id="SVGID_1_" gradientUnits="userSpaceOnUse" x1="2.7114" y1="-1.2178" x2="21.3814" y2="17.4522">
	<stop  offset="0" style="stop-color:#CA8723"/>
	<stop  offset="0.5" style="stop-color:#E3B04D"/>
	<stop  offset="0.999" style="stop-color:#EECE66"/>
</linearGradient>
<path class="st0" d="M8.7,9.5c-2.1,0-3.8-1.7-3.8-3.9V3.9C4.9,1.7,6.6,0,8.7,0s3.8,1.7,3.8,3.9v1.8C12.4,7.8,10.7,9.5,8.7,9.5z
	 M8.7,1.5c-1.2,0-2.3,1.1-2.3,2.4v1.8c0,1.3,1,2.4,2.3,2.4s2.2-1.1,2.2-2.4V3.9C10.9,2.6,9.9,1.5,8.7,1.5z"/>
<linearGradient id="SVGID_00000123442422086120138410000017509527183764361144_" gradientUnits="userSpaceOnUse" x1="-3.7985" y1="5.2921" x2="14.8715" y2="23.9621">
	<stop  offset="0" style="stop-color:#CA8723"/>
	<stop  offset="0.5" style="stop-color:#E3B04D"/>
	<stop  offset="0.999" style="stop-color:#EECE66"/>
</linearGradient>
<path style="fill:url(#SVGID_00000123442422086120138410000017509527183764361144_);" d="M15.6,20.5H1.8c-0.5,0-1-0.2-1.3-0.6
	C0.1,19.5-0.1,19,0,18.5C0.6,14.2,4.3,11,8.7,11s8.1,3.2,8.7,7.5c0.1,0.5-0.1,1-0.4,1.4C16.6,20.3,16.1,20.5,15.6,20.5z M8.7,12.5
	c-3.6,0-6.7,2.7-7.2,6.2c0,0.1,0,0.2,0.1,0.2c0,0,0.1,0.1,0.2,0.1h13.8c0.1,0,0.2-0.1,0.2-0.1c0,0,0.1-0.1,0.1-0.2
	C15.4,15.2,12.3,12.5,8.7,12.5z"/>
</svg>
