<?xml version="1.0" encoding="utf-8"?>
<!-- Generator: Adobe Illustrator 26.0.1, SVG Export Plug-In . SVG Version: 6.00 Build 0)  -->
<svg version="1.1" id="Calque_1" xmlns="http://www.w3.org/2000/svg" xmlns:xlink="http://www.w3.org/1999/xlink" x="0px" y="0px"
	 viewBox="0 0 24.5 17.5" style="enable-background:new 0 0 24.5 17.5;" xml:space="preserve">
<style type="text/css">
	.st0{fill:url(#SVGID_1_);}
</style>
<linearGradient id="SVGID_1_" gradientUnits="userSpaceOnUse" x1="2.5315" y1="-0.9651" x2="22.8029" y2="19.3063">
	<stop  offset="0" style="stop-color:#CA8723"/>
	<stop  offset="0.5" style="stop-color:#E3B04D"/>
	<stop  offset="0.999" style="stop-color:#EECE66"/>
</linearGradient>
<path class="st0" d="M24.5,1.8c0-1-0.8-1.8-1.8-1.8h-21C0.8,0,0,0.8,0,1.8v14c0,0.5,0.2,0.9,0.5,1.2c0,0,0,0,0,0s0,0,0,0
	c0.3,0.3,0.7,0.5,1.2,0.5h21c0.5,0,0.9-0.2,1.2-0.5c0,0,0,0,0,0c0,0,0,0,0,0c0.3-0.3,0.5-0.7,0.5-1.2V1.8z M1.5,1.8
	c0-0.1,0-0.1,0.1-0.2l7.2,6.1l-7.2,7.2V1.8z M9.9,8.7l1.2,1.1c0.3,0.3,0.7,0.4,1.1,0.4c0.4,0,0.8-0.1,1.1-0.4l1.2-1.1l7.3,7.3H2.6
	L9.9,8.7z M15.8,7.7l7.2-6.1c0,0,0.1,0.1,0.1,0.2v13.2L15.8,7.7z M20.7,1.5l-8.3,7.1c-0.1,0.1-0.2,0.1-0.3,0L3.8,1.5H20.7z"/>
</svg>
