<?xml version="1.0" encoding="utf-8"?>
<!-- Generator: Adobe Illustrator 26.0.1, SVG Export Plug-In . SVG Version: 6.00 Build 0)  -->
<svg version="1.1" id="Calque_1" xmlns="http://www.w3.org/2000/svg" xmlns:xlink="http://www.w3.org/1999/xlink" x="0px" y="0px"
	 viewBox="0 0 18.5 24.1" style="enable-background:new 0 0 18.5 24.1;" xml:space="preserve">
<style type="text/css">
	.st0{fill:url(#SVGID_1_);}
	.st1{fill:url(#SVGID_00000154416433105291804370000009751964904436703664_);}
</style>
<g>
	<linearGradient id="SVGID_1_" gradientUnits="userSpaceOnUse" x1="1.0201" y1="2.2382" x2="16.6749" y2="17.893">
		<stop  offset="0" style="stop-color:#CA8723"/>
		<stop  offset="0.5" style="stop-color:#E3B04D"/>
		<stop  offset="0.999" style="stop-color:#EECE66"/>
	</linearGradient>
	<path class="st0" d="M9.3,0C4.1,0,0,4.1,0,9.2c0,5.2,5.6,11.7,8,14.3c0.3,0.4,0.8,0.6,1.3,0.6c0,0,0,0,0,0c0.5,0,0.9-0.2,1.3-0.6
		c2.4-2.6,8-9.1,8-14.3C18.5,4.1,14.4,0,9.3,0z M9.4,22.5c-0.1,0.1-0.1,0.1-0.2,0.1c0,0,0,0,0,0c0,0-0.1,0-0.2-0.1
		C7.3,20.6,1.5,14,1.5,9.2c0-4.2,3.5-7.7,7.8-7.7S17,4.9,17,9.2C17,14,11.2,20.6,9.4,22.5z"/>
	
		<linearGradient id="SVGID_00000026152165559115647130000004987532772054369725_" gradientUnits="userSpaceOnUse" x1="1.5957" y1="1.6625" x2="17.2505" y2="17.3174">
		<stop  offset="0" style="stop-color:#CA8723"/>
		<stop  offset="0.5" style="stop-color:#E3B04D"/>
		<stop  offset="0.999" style="stop-color:#EECE66"/>
	</linearGradient>
	<path style="fill:url(#SVGID_00000026152165559115647130000004987532772054369725_);" d="M9.3,4.6c-2.6,0-4.8,2.1-4.8,4.8
		s2.1,4.8,4.8,4.8S14,11.9,14,9.3S11.9,4.6,9.3,4.6z M9.3,12.6C7.5,12.6,6,11.1,6,9.3s1.5-3.2,3.2-3.2s3.2,1.5,3.2,3.2
		S11,12.6,9.3,12.6z"/>
</g>
</svg>
