<?xml version="1.0" encoding="utf-8"?>
<!-- Generator: Adobe Illustrator 26.0.1, SVG Export Plug-In . SVG Version: 6.00 Build 0)  -->
<svg version="1.1" id="Calque_1" xmlns="http://www.w3.org/2000/svg" xmlns:xlink="http://www.w3.org/1999/xlink" x="0px" y="0px"
	 viewBox="0 0 22.5 24.5" style="enable-background:new 0 0 22.5 24.5;" xml:space="preserve">
<g>
	<path d="M0.8,7.5h5c1,0,1.8-0.8,1.8-1.8v-5c0-0.3-0.2-0.6-0.5-0.7C6.8-0.1,6.4,0,6.2,0.2l-6,6C0,6.4-0.1,6.8,0.1,7
		C0.2,7.3,0.4,7.5,0.8,7.5z M6,2.6v3.2C6,5.9,5.9,6,5.8,6H2.6L6,2.6z"/>
	<path d="M19.8,14.1c-0.4,0-0.8,0.3-0.8,0.8v7.9c0,0.1-0.1,0.2-0.2,0.2h-17c-0.1,0-0.2-0.1-0.2-0.2V8.8c0-0.4-0.3-0.8-0.7-0.8
		S0,8.4,0,8.8v13.9c0,1,0.8,1.8,1.8,1.8h17c1,0,1.8-0.8,1.8-1.8v-7.9C20.5,14.4,20.2,14.1,19.8,14.1z"/>
	<path d="M8.8,1.5h10c0.1,0,0.2,0.1,0.2,0.2v5c0,0.4,0.3,0.8,0.8,0.8s0.8-0.3,0.8-0.8v-5c0-1-0.8-1.8-1.8-1.8h-10C8.3,0,8,0.3,8,0.8
		S8.3,1.5,8.8,1.5z"/>
	<path d="M22.3,10l-2.1-2.1c-0.3-0.3-0.8-0.3-1.1,0l-8.5,8.5c-0.1,0.1-0.1,0.1-0.2,0.2l-1.8,3.9c-0.1,0.3-0.1,0.6,0.2,0.8
		c0.1,0.1,0.3,0.2,0.5,0.2c0.1,0,0.2,0,0.3-0.1l3.9-1.8c0.1,0,0.2-0.1,0.2-0.2l8.5-8.5C22.6,10.7,22.6,10.3,22.3,10z M11.4,18.2
		l0.6,0.6l-1.1,0.5L11.4,18.2z M13.3,17.9l-1.1-1.1l5.8-5.8l1.1,1.1L13.3,17.9z M20.1,11.1L19,10.1l0.6-0.6l1.1,1.1L20.1,11.1z"/>
</g>
</svg>
