<?xml version="1.0" encoding="utf-8"?>
<!-- Generator: Adobe Illustrator 25.2.3, SVG Export Plug-In . SVG Version: 6.00 Build 0)  -->
<svg version="1.1" id="Mode_Isolation" xmlns="http://www.w3.org/2000/svg" xmlns:xlink="http://www.w3.org/1999/xlink" x="0px"
	 y="0px" viewBox="0 0 262 262" style="enable-background:new 0 0 262 262;" xml:space="preserve">

	 	 <defs>
	 		<linearGradient id="gradient" x1="0%" y1="0%" x2="0%" y2="100%">
	 			<stop offset="0%" stop-color="#eece66" />
	 			<stop offset="100%" stop-color="#ca8723" />
	 		</linearGradient>
	 	 </defs>
	 	 <style type="text/css">
	 		.st0{fill="url(#gradient)";stroke-width:3;stroke-linecap:round;stroke-linejoin:round;stroke-miterlimit:10;}
	 	 </style>
	 	 <g fill="url(#gradient)">
	<path d="M256.3,131.8C256.3,62.6,200.2,6.5,131,6.5S5.7,62.6,5.7,131.8c0,62.5,45.8,114.3,105.7,123.7V168H79.6v-36.2h31.8v-27.6
		c0-31.4,18.7-48.7,47.3-48.7c13.7,0,28,2.4,28,2.4v30.8H171c-15.6,0-20.4,9.7-20.4,19.6v23.5h34.7l-5.6,36.2h-29.2v87.5
		C210.5,246.1,256.3,194.3,256.3,131.8z"/>
		</g>
</svg>
