<?xml version="1.0" encoding="utf-8"?>
<!-- Generator: Adobe Illustrator 25.2.3, SVG Export Plug-In . SVG Version: 6.00 Build 0)  -->
<svg version="1.1" id="Mode_Isolation" xmlns="http://www.w3.org/2000/svg" xmlns:xlink="http://www.w3.org/1999/xlink" x="0px"
	 y="0px" viewBox="0 0 262 262" style="enable-background:new 0 0 262 262;" xml:space="preserve">
<style type="text/css">
	.st0{fill:url(#SVGID_1_);}
	.st1{fill:url(#SVGID_2_);}
	.st2{fill:url(#SVGID_3_);}
</style>
<g>
	<linearGradient id="SVGID_1_" gradientUnits="userSpaceOnUse" x1="4" y1="131" x2="258" y2="131">
		<stop  offset="0" style="stop-color:#EECE66"/>
		<stop  offset="1" style="stop-color:#CA8723"/>
	</linearGradient>
	<path class="st0" d="M131,26.9c33.9,0,37.9,0.1,51.3,0.7c12.4,0.6,19.1,2.6,23.6,4.4c5.9,2.3,10.2,5.1,14.6,9.5
		c4.4,4.4,7.2,8.7,9.5,14.6c1.7,4.5,3.8,11.2,4.4,23.6c0.6,13.4,0.7,17.4,0.7,51.3s-0.1,37.9-0.7,51.3c-0.6,12.4-2.6,19.1-4.4,23.6
		c-2.3,5.9-5.1,10.2-9.5,14.6c-4.4,4.4-8.7,7.2-14.6,9.5c-4.5,1.7-11.2,3.8-23.6,4.4c-13.4,0.6-17.4,0.7-51.3,0.7
		s-37.9-0.1-51.3-0.7c-12.4-0.6-19.1-2.6-23.6-4.4c-5.9-2.3-10.2-5.1-14.6-9.5c-4.4-4.4-7.2-8.7-9.5-14.6
		c-1.7-4.5-3.8-11.2-4.4-23.6c-0.6-13.4-0.7-17.4-0.7-51.3s0.1-37.9,0.7-51.3c0.6-12.4,2.6-19.1,4.4-23.6c2.3-5.9,5.1-10.2,9.5-14.6
		c4.4-4.4,8.7-7.2,14.6-9.5c4.5-1.7,11.2-3.8,23.6-4.4C93.1,27,97.1,26.9,131,26.9 M131,4C96.5,4,92.2,4.1,78.6,4.8
		c-13.5,0.6-22.7,2.8-30.8,5.9c-8.4,3.2-15.4,7.6-22.5,14.6c-7.1,7.1-11.4,14.1-14.6,22.5c-3.1,8.1-5.3,17.3-5.9,30.8
		C4.1,92.2,4,96.5,4,131c0,34.5,0.1,38.8,0.8,52.4c0.6,13.5,2.8,22.7,5.9,30.8c3.2,8.4,7.6,15.4,14.6,22.5
		c7.1,7.1,14.1,11.4,22.5,14.6c8.1,3.1,17.3,5.3,30.8,5.9c13.5,0.6,17.9,0.8,52.4,0.8s38.8-0.1,52.4-0.8c13.5-0.6,22.7-2.8,30.8-5.9
		c8.4-3.2,15.4-7.6,22.5-14.6c7.1-7.1,11.4-14.1,14.6-22.5c3.1-8.1,5.3-17.3,5.9-30.8c0.6-13.5,0.8-17.9,0.8-52.4
		s-0.1-38.8-0.8-52.4c-0.6-13.5-2.8-22.7-5.9-30.8c-3.2-8.4-7.6-15.4-14.6-22.5c-7.1-7.1-14.1-11.4-22.5-14.6
		c-8.1-3.1-17.3-5.3-30.8-5.9C169.8,4.1,165.5,4,131,4L131,4z"/>
	<linearGradient id="SVGID_2_" gradientUnits="userSpaceOnUse" x1="65.7838" y1="131" x2="196.2162" y2="131">
		<stop  offset="0" style="stop-color:#EECE66"/>
		<stop  offset="1" style="stop-color:#CA8723"/>
	</linearGradient>
	<path class="st1" d="M131,65.8C95,65.8,65.8,95,65.8,131S95,196.2,131,196.2s65.2-29.2,65.2-65.2S167,65.8,131,65.8z M131,173.3
		c-23.4,0-42.3-19-42.3-42.3c0-23.4,19-42.3,42.3-42.3c23.4,0,42.3,19,42.3,42.3C173.3,154.4,154.4,173.3,131,173.3z"/>
	<linearGradient id="SVGID_3_" gradientUnits="userSpaceOnUse" x1="183.5529" y1="63.2071" x2="214.0329" y2="63.2071">
		<stop  offset="0" style="stop-color:#EECE66"/>
		<stop  offset="1" style="stop-color:#CA8723"/>
	</linearGradient>
	<circle class="st2" cx="198.8" cy="63.2" r="15.2"/>
</g>
</svg>
