<?xml version="1.0" encoding="utf-8"?>
<!-- Generator: Adobe Illustrator 25.2.3, SVG Export Plug-In . SVG Version: 6.00 Build 0)  -->
<svg version="1.1" id="Calque_1" xmlns="http://www.w3.org/2000/svg" xmlns:xlink="http://www.w3.org/1999/xlink" x="0px" y="0px"
	 viewBox="0 0 542.6 272" style="enable-background:new 0 0 542.6 272;" xml:space="preserve">
<style type="text/css">
	.st0{clip-path:url(#SVGID_2_);fill:url(#XMLID_2_);}
</style>
<g>
	<g>
		<g>
			<defs>
				<path id="SVGID_1_" d="M427.3,157.5c-13.2-3.4-26.5-7.7-38.5-14.1c2.6-31.3-2.1-55.7-8.5-74.1c-4.2-12.1-9.8-24.1-21.4-33.7
					c-7.4-6.1-15.5-7.7-23.4-1.2c-12.3,10-10.7,29.6-7.4,43.5c5.9,23.2,20.8,43.2,39.1,58.3c4.7,3.8,9.7,7,14.9,9.8
					c-0.3,2.7-0.6,5.3-1,7.9c-6.3,37.8-25.9,104.3-51.4,98.1c-14.3-3.5-22.8-25.8-26.8-40.3c-7.9-28.9-7.3-55.4-5.7-80.6
					c0.6-7.9-10.8-9.6-11.1-2.1c-1.1,23.5,1.1,44.4,4.6,65.8c0.9,5.1,2.2,11.1,4.1,17.2c-3.4,6.5-8,12.3-13.3,17.3
					c-6,5.7-13,10.3-20.5,13.9c-7.4,3.6-15.4,6.1-23.4,7.4c-8.1,1.3-16.3,1.4-24.2,0s-15.5-4.4-21.7-9.1c-3.1-2.3-6-5.2-8.5-8.2
					c-2.6-3-4.9-6.3-6.8-9.7c-4-6.9-6.8-14.5-8.8-22.3c-1-3.9-1.7-7.9-2.3-11.9s-1-8-1.2-12.1c-0.8-16.2,0.9-32.6,4.6-48.5
					c0.3-1.3,0.6-2.7,1-4c5.7-0.2,11.3-0.6,17-1.1c8.4-0.8,16.8-1.7,25.2-3.1c8.3-1.4,16.6-3.4,24.8-5.9c8.1-2.5,16.1-5.7,23.8-9.6
					c3.8-2,7.6-4.1,11.2-6.6s7.1-5.1,10.3-8c6.5-5.9,12.3-13,15.8-21.5c1.8-4.2,3-8.8,3.3-13.6c0.3-4.7-0.3-9.6-1.9-14.2
					c-1.5-4.5-4-8.8-7-12.4s-6.5-6.8-10.5-9.5c-4-2.6-8.5-4.5-13.2-5.7c-4.7-1.1-9.5-1.5-14.2-1.2s-9.3,1.2-13.7,2.6
					c-4.4,1.3-8.6,3.1-12.7,5.2c-4,2.1-7.8,4.5-11.5,7c-3.6,2.6-7.1,5.4-10.3,8.4c-6.6,5.9-12.4,12.5-17.7,19.4
					c-1.3,1.7-2.6,3.5-3.9,5.3s-2.5,3.6-3.6,5.5c-2.3,3.7-4.5,7.5-6.5,11.4c-7.2,14.1-12.5,29.1-16,44.5c-7.4,0.2-14.9,0.1-22.3-0.2
					c-16.7-0.8-33.3-3.2-49.4-7.7s-31.6-11.2-45.3-20.9c-6.8-4.8-13.2-10.3-18.9-16.5S11.8,63.5,7.6,56.2c4.1,7.3,9,14.2,14.5,20.5
					C27.7,83,34,88.6,40.8,93.6c13.6,10,29.2,17.1,45.3,22c16.2,4.9,32.9,7.5,49.8,8.6c7.2,0.5,14.5,0.7,21.7,0.6
					c-0.1,0.4-0.2,0.9-0.3,1.3c-3.4,16.9-4.7,34.3-3.2,51.6c0.7,8.6,2.2,17.2,4.7,25.6c2.5,8.4,5.9,16.5,10.6,24
					s10.8,14.1,18.2,19.2c7.4,5.1,16.1,8,24.7,9.2c8.7,1.1,17.5,0.6,25.9-1.2c8.4-1.8,16.5-4.8,24-8.9c7.5-4.1,14.4-9.3,20.2-15.5
					c5-5.3,9.2-11.5,12.2-18.1c8.9,29.6,29.1,63.4,58.7,33.9c17.1-19.5,30.7-61,34.6-97.1c13.7,6.4,28.7,10.3,43.4,13.3
					c34.6,7.1,66.1,3.1,99.7-6.5C495.3,166.1,463.7,167.7,427.3,157.5z M185.6,83.2c1.9-3.5,4-7,6.2-10.4l1.7-2.5l1.7-2.5
					c1.2-1.6,2.4-3.3,3.6-4.9c2.5-3.2,5-6.3,7.7-9.2c2.7-3,5.5-5.8,8.4-8.5s6-5.2,9.1-7.6c3.2-2.4,6.4-4.5,9.8-6.4
					c6.8-3.7,14-6.5,21.4-7.2c7.3-0.8,14.6,0.5,20.9,4.1c3.1,1.8,6,4.2,8.5,7c2.5,2.7,4.5,5.8,5.8,9.1s2,6.9,1.9,10.6
					c-0.1,3.6-0.9,7.3-2.2,10.9c-2.7,7.1-7.5,13.6-13.2,19.2c-2.9,2.8-6,5.4-9.3,7.7c-3.3,2.4-6.7,4.6-10.3,6.6
					c-7.1,4-14.7,7.3-22.5,10.1c-7.8,2.7-15.8,4.9-23.9,6.6s-16.4,3-24.7,3.9c-5.2,0.6-10.5,1-15.8,1.3
					C174.1,108,179.1,95.2,185.6,83.2z M371,131.4c-20.8-17.7-34.5-43.4-37.3-70.6c-2.8-19.5,9.2-33,26.2-12.2
					c10.7,13.2,15.7,25.3,19.2,41.9c2.7,12.5,4.5,31.6,3.5,49.4C378.6,137.3,374.7,134.5,371,131.4z"/>
			</defs>
			<clipPath id="SVGID_2_">
				<use xlink:href="#SVGID_1_"  style="overflow:visible;"/>
			</clipPath>
			
				<linearGradient id="XMLID_2_" gradientUnits="userSpaceOnUse" x1="-80.9" y1="863.3" x2="681" y2="101.4" gradientTransform="matrix(1 0 0 1 0 -282)">
				<stop  offset="0" style="stop-color:#EED25A"/>
				<stop  offset="0.1443" style="stop-color:#CA8723"/>
				<stop  offset="0.269" style="stop-color:#EECE66"/>
				<stop  offset="0.4133" style="stop-color:#CA8723"/>
				<stop  offset="0.532" style="stop-color:#E3B04D"/>
				<stop  offset="0.6458" style="stop-color:#EECE66"/>
				<stop  offset="0.7704" style="stop-color:#CA8723"/>
				<stop  offset="0.8704" style="stop-color:#EED25A"/>
				<stop  offset="1" style="stop-color:#CA8723"/>
			</linearGradient>
			<rect id="XMLID_65_" x="-240.8" y="-20.7" class="st0" width="1081.7" height="442.1"/>
		</g>
	</g>
</g>
</svg>
