<?xml version="1.0" encoding="utf-8"?>
<!-- Generator: Adobe Illustrator 25.2.3, SVG Export Plug-In . SVG Version: 6.00 Build 0)  -->
<svg version="1.1" id="Calque_1" xmlns="http://www.w3.org/2000/svg" xmlns:xlink="http://www.w3.org/1999/xlink" x="0px" y="0px"
	 viewBox="0 0 1060.6 560" style="enable-background:new 0 0 1060.6 560;" xml:space="preserve">
<style type="text/css">
	.st0{clip-path:url(#SVGID_2_);fill:url(#XMLID_2_);}
	.st1{fill:#FFFFFF;}
</style>
<g>
	<defs>
		<path id="SVGID_1_" d="M59.5,360.7c1.7-1.5,2.6-2.5,2.9-3c0.3-0.7,0.7-1.1,1.3-1.1c0.6,0,0.9,0.5,1,1.6l1,15.9
			c0,0.9,0,1.5-0.1,1.7c-0.1,0.2-0.3,0.3-0.7,0.3c-0.5,0-1-0.7-1.5-2c-2-4.8-4.8-8.8-8.4-11.9c-3.6-3.1-7.5-4.6-11.8-4.6
			c-3.7,0-7.1,1.2-10.2,3.6c-3.1,2.4-5.5,5.8-7.2,10.2c-1.7,4.4-2.6,9.2-2.6,14.2c0,8.6,2.4,15.6,7.1,21c4.8,5.4,10.1,8.1,15.9,8.1
			c4,0,7.6-1.3,11-3.8c3.3-2.5,5.9-5.4,7.6-8.8c0.5-0.9,0.9-1.4,1.4-1.4c0.7,0,1,0.4,1,1.1c0,0.9-1.2,2.8-3.5,5.8
			c-2.3,3-5.3,5.4-9.1,7.2s-7.8,2.8-12.1,2.8c-5.1,0-9.9-1.3-14.5-3.9c-4.6-2.6-8.2-6.2-10.9-10.7c-2.7-4.6-4-9.9-4-16
			c0-6,1.3-11.4,3.9-16.3c2.6-4.8,6.3-8.6,11-11.3c4.7-2.7,9.6-4,14.6-4c2.7,0,5.4,0.4,8.2,1.3C53.7,357.7,56.6,359,59.5,360.7z
			 M96.4,386.3c0-4.1,1.2-8.6,3.7-13.5c2.5-4.9,6.1-9,10.9-12.1s10.2-4.8,16.2-4.8c8.4,0,15.4,3,20.9,9c5.5,6,8.2,12.9,8.2,20.6
			c0,8.2-3,15.6-9.1,22.1c-6.1,6.5-13.4,9.8-21.9,9.8c-8.2,0-15-2.9-20.6-8.6C99.2,403.1,96.4,395.6,96.4,386.3z M106.6,384.8
			c0,5,0.8,10,2.3,15.3c1.5,5.2,3.9,9,7.1,11.4c3.2,2.4,6.7,3.5,10.4,3.5c6,0,10.8-2.9,14.4-8.7c3.6-5.8,5.4-12.6,5.4-20.2
			c0-7.4-1.8-13.9-5.5-19.5c-3.7-5.6-8.5-8.4-14.4-8.4c-4.5,0-8.2,1.5-11.2,4.5c-3,3-5.1,6.6-6.5,10.7
			C107.3,377.5,106.6,381.3,106.6,384.8z M237.4,416.8c-1.5,0.1-2.3,0.1-2.6,0.1c-1.1,0-3.2-0.1-6.1-0.2c-2.9-0.1-9.1-0.2-18.4-0.2
			h-11.6c-0.4,0-2,0.1-4.7,0.2c-2.7,0.2-4.3,0.2-4.9,0.2c-2.3,0-3.5-0.3-3.5-0.9c0-0.5,0.5-0.7,1.4-0.8c2.9-0.2,5-0.8,6.2-1.9
			c1.2-1.1,1.9-2.6,2.4-4.7c0.4-2,0.6-7.5,0.6-16.4l0-16.3c0-5.3-0.2-9-0.7-11.1c-0.5-2.1-1.4-3.7-2.9-4.8c-1.5-1.1-3.1-1.7-5-1.9
			c-1-0.1-1.5-0.4-1.5-1c0-0.6,0.4-0.8,1.3-0.8c0.2,0,0.6,0,1.2,0c4.8,0.3,10.5,0.5,17,0.5l8-0.1c0.8,0,1.2,0.3,1.2,0.9
			c0,0.5-0.4,0.8-1.3,0.8c-2.2,0-4,0.4-5.4,1.3c-1.4,0.9-2.4,1.8-2.9,2.9c-0.5,1.1-0.7,3.3-0.7,6.5l-0.4,21.6l0.1,12
			c0,3.7,0.2,6.2,0.5,7.3c0.3,1.1,1,2.1,2,3c1,0.9,2.8,1.3,5.5,1.3c0.2,0,2.9-0.1,8.2-0.3c4.2-0.6,7.9-2.6,11.2-6.1
			c3.3-3.5,5.5-6.6,6.6-9.4c0.3-0.8,0.7-1.2,1.2-1.2c0.5,0,0.8,0.4,0.8,1.1c0,0.9-0.4,3.9-1.3,9.1C238.1,413,237.6,416,237.4,416.8z
			 M266.2,386.3c0-4.1,1.2-8.6,3.7-13.5c2.5-4.9,6.1-9,10.9-12.1s10.2-4.8,16.2-4.8c8.4,0,15.4,3,20.9,9c5.5,6,8.2,12.9,8.2,20.6
			c0,8.2-3,15.6-9.1,22.1c-6.1,6.5-13.4,9.8-21.9,9.8c-8.2,0-15-2.9-20.6-8.6C269,403.1,266.2,395.6,266.2,386.3z M276.4,384.8
			c0,5,0.8,10,2.3,15.3c1.5,5.2,3.9,9,7.1,11.4c3.2,2.4,6.7,3.5,10.4,3.5c6,0,10.8-2.9,14.4-8.7c3.6-5.8,5.4-12.6,5.4-20.2
			c0-7.4-1.8-13.9-5.5-19.5c-3.7-5.6-8.5-8.4-14.4-8.4c-4.5,0-8.2,1.5-11.2,4.5c-3,3-5.1,6.6-6.5,10.7
			C277.1,377.5,276.4,381.3,276.4,384.8z M391.5,386c4.2,1.8,7.2,3.7,8.8,5.7c1.7,2,2.9,5.1,3.7,9.2c1,5.5,2.4,9.1,4.3,11
			c1.8,1.9,4.2,2.9,7.1,3c0.8,0.1,1.2,0.4,1.2,0.9c0,0.5-0.5,0.8-1.4,0.8c-8.5,0-13.7-0.3-15.5-0.8c-1.8-0.6-3.2-3.7-4-9.3
			c-0.8-5.5-1.7-9.5-2.6-12.1c-0.9-2.5-2.3-4.5-4.3-5.8c-2-1.4-5-2-9.2-2c-1.6,0-3.4,0.2-5.4,0.5c-0.2,1.9-0.2,3.9-0.2,6
			c0,7.8,0.1,12.8,0.3,15.1c0.2,2.3,0.9,4,1.9,5c1.1,1,2.9,1.6,5.4,1.7c1.1,0,1.6,0.3,1.6,0.8c0,0.6-0.7,0.9-2,0.9h-22.6
			c-1.3,0-2-0.3-2-0.9c0-0.5,0.5-0.8,1.5-0.8c2.3,0,3.9-0.4,4.8-1c0.9-0.7,1.6-1.8,2.1-3.3c0.5-1.5,0.8-4.1,0.8-8l-0.1-9.3l0-14.2
			c0-7.2-0.2-12-0.5-14.3c-0.3-2.3-0.9-3.9-1.7-4.7c-0.8-0.8-2.7-1.4-5.7-1.9c-0.6-0.1-1-0.3-1-0.8c0-0.5,0.6-0.7,1.9-0.7l27-0.6
			c7.4,0,12.8,1.4,16.2,4.3c3.4,2.9,5,6.3,5,10.5c0,2.6-0.7,5-2,7.2c-1.4,2.2-3,3.7-4.8,4.7C398.5,383.6,395.6,384.7,391.5,386z
			 M374.2,384.8c5.8-0.1,10.2-0.5,13.1-1.2c2.9-0.7,5.4-2.2,7.5-4.6c2.1-2.4,3.1-5.2,3.1-8.4c0-3.4-1.1-6.4-3.4-9
			c-2.3-2.6-5.9-3.8-10.9-3.8c-2.7,0-5.8,0.4-9.1,1.1c-0.4,8.4-0.5,15-0.5,20C373.9,380.5,374,382.5,374.2,384.8z M520,417.5h-2.7
			c-1.4-4.6-3.7-10.8-6.7-18.8l-8.6-22.2c-2.7-6.9-4.5-11.2-5.6-12.9c-1-1.7-2.1-2.9-3.1-3.5c-1-0.6-2.4-1-4.2-1.1
			c-0.8-0.1-1.1-0.3-1.1-0.8c0-0.6,0.4-0.9,1.1-0.9h23.9c1.5,0,2.2,0.3,2.2,0.8c0,0.7-0.5,1-1.5,1c-4,0-6,1.7-6,5.2
			c0,0.8,0.2,2.1,0.5,3.9c0.4,1.8,1,4,1.9,6.6c0.9,2.6,2.8,8,5.8,16.1c3,8.1,4.9,13.1,5.7,14.9l9.8-27c2.8-7.7,4.2-12.5,4.2-14.4
			c0-3.2-2-5-5.9-5.3c-0.8-0.1-1.2-0.3-1.2-0.9c0-0.3,0.1-0.6,0.4-0.7c0.3-0.1,1.1-0.2,2.5-0.2h15.2c1.4,0,2.2,0,2.5,0.1
			c0.3,0.1,0.4,0.3,0.4,0.7c0,0.5-0.6,0.9-1.8,1.1c-2.3,0.3-4,1.2-5.1,2.5c-1.1,1.3-2.2,2.9-3.3,4.7c-1,1.8-3.9,9.2-8.4,21.9
			C529.3,393,525.7,402.7,520,417.5z M579.7,356.4l8.3,0.2l12.7-0.2c1.5,0,2.3,0.3,2.3,0.9c0,0.5-0.4,0.7-1.2,0.9
			c-3.4,0.4-5.5,1.6-6.3,3.6c-0.8,2-1.3,9.4-1.3,22.2c0,4.7,0.1,10,0.4,15.9c0.2,5.9,0.5,9.4,0.8,10.6c0.3,1.2,0.9,2.1,1.7,2.8
			c0.9,0.7,2.4,1.2,4.7,1.5c0.8,0.1,1.1,0.4,1.1,0.9c0,0.5-0.4,0.8-1.1,0.8l-11.3-0.1l-9.6,0.1c-1.1,0-1.6-0.3-1.6-0.9
			c0-0.6,0.4-1,1.3-1c2.8-0.1,4.5-1,5-2.8c0.5-1.8,0.7-7.6,0.7-17.5c0-9.5-0.1-17.2-0.3-23c-0.2-5.9-0.7-9.5-1.5-10.8
			c-0.8-1.3-2.4-2.1-4.6-2.5c-0.9-0.2-1.3-0.5-1.3-1S579.1,356.4,579.7,356.4z M648.4,357.2c1.8,2.5,5,6.3,9.5,11.4l14.6,16.9
			l14,16.2c0.3-5.5,0.5-12.6,0.5-21.4c0-6.6-0.1-11-0.4-13.2c-0.3-2.2-1.3-4.1-3-5.6c-1.7-1.5-3.9-2.3-6.5-2.3
			c-1.2,0-1.8-0.3-1.8-0.8c0-0.3,0.1-0.5,0.4-0.7c0.3-0.1,2.3-0.3,6.1-0.4c3.8-0.1,7-0.2,9.7-0.2l6.2,0h1c0.9,0,1.4,0.3,1.4,0.8
			c0,0.5-0.4,0.8-1.2,0.8c-3.1,0.3-5.3,1.1-6.6,2.4c-1.4,1.3-2.2,3.1-2.4,5.5c-0.3,2.4-0.4,10.4-0.4,23.9l-0.4,24.1
			c0,1.2-0.3,1.8-0.9,1.8c-0.2,0-0.4-0.1-0.6-0.2c-0.3-0.1-1.6-1.7-4.1-4.6c-2.5-2.9-5.5-6.4-9.1-10.6c-3.6-4.1-6.4-7.4-8.5-10
			c-4.5-5.5-7.4-8.9-8.6-10.2c-4.4-4.7-7-7.7-7.8-9c-0.5-0.9-1-1.4-1.4-1.4c-0.3,0-0.5,0.6-0.5,1.8l0.1,7.1c0,9,0.2,16.1,0.7,21.5
			c0.5,5.3,1,8.5,1.5,9.4c0.5,0.9,1.5,1.9,2.8,2.8c1.3,0.9,2.7,1.4,4.2,1.4c2,0,3,0.4,3,1.1c0,0.5-0.6,0.8-1.7,0.8l-21.9,0
			c-1,0-1.5-0.3-1.5-0.8c0-0.6,0.5-0.9,1.5-0.9c3.7,0,6.2-0.8,7.5-2.5c1.2-1.7,1.9-5.2,1.9-10.6l-0.4-16c0-9.5-0.2-15-0.8-16.7
			c-0.5-1.7-1.7-3.7-3.5-6.2c-1.8-2.4-3.9-3.8-6.2-4.1c-1-0.1-1.5-0.4-1.5-0.8c0-0.6,0.7-0.9,2-0.9L648.4,357.2z M753.7,359.4
			c-2.4-0.1-4-0.2-5-0.2c-6.6,0-11.3,1.4-14.3,4.1c-2.9,2.7-4.7,5.2-5.2,7.3c-0.2,0.8-0.6,1.1-1.2,1.1c-0.3,0-0.6-0.1-0.9-0.4
			c0.2-3.6,0.7-8.5,1.8-14.6c1.5,0,2.4,0,2.8,0c2.4,0,5.5,0.1,9.5,0.4c4.3,0.2,10.8,0.4,19.7,0.4c9.1,0,15-0.1,17.7-0.3
			c2.5-0.2,5.9-0.4,10.3-0.4c0.4,2.2,0.6,4.5,0.7,6.8c0.2,2.7,0.4,4.6,0.5,5.7c0,0.2,0,0.5,0,0.8c0,0.7-0.3,1.1-1,1.1
			c-0.4,0-0.7-0.1-1-0.4c-0.3-0.3-0.8-1.1-1.8-2.6c-1.6-2.5-3.2-4.3-4.9-5.6c-1.7-1.3-3.6-2.1-5.7-2.4c-2.1-0.4-6.3-0.6-12.7-0.7
			c-0.4,4.6-0.5,9.8-0.5,15.7c0,19.5,0.4,31,1.3,34.5c0.8,3.5,3.8,5.2,9,5.2c1.2,0,1.9,0.3,1.9,0.8c0,0.6-0.6,0.9-1.8,0.9h-28
			c-0.7,0-1.1-0.3-1.1-0.9c0-0.6,0.7-0.9,2.1-0.9c2.4,0,4.3-0.7,5.8-2c1.5-1.4,2.3-3.2,2.6-5.5c0.2-2.3,0.3-9,0.3-20
			C754.6,377.9,754.3,368.6,753.7,359.4z M838.9,355.7h2.1c3.4,7,8.1,18.9,14,35.7c3.8,10.8,6.5,17.4,7.9,19.9
			c1.4,2.4,3.7,3.8,6.9,4.1c1,0.1,1.5,0.4,1.5,1c0,0.4-0.3,0.6-0.8,0.6l-0.6,0c-2.8-0.2-6.4-0.4-10.7-0.4c-6.6,0-10.9,0.1-12.8,0.3
			c-0.9,0-1.4-0.3-1.4-0.8c0-0.4,0.3-0.6,1-0.7c2.6-0.2,4.4-0.7,5.4-1.3c1-0.6,1.5-1.6,1.5-3c0-1.3-0.9-4.6-2.8-9.8l-2.7-7.8
			c-1.6,0-8.6,0.1-21.2,0.3c-3.2,8.4-4.7,13.7-4.7,15.9c0,1.9,0.8,3.2,2.3,4.1c1.6,0.9,3.1,1.4,4.6,1.5c1.1,0.1,1.7,0.4,1.7,1
			c0,0.2-0.2,0.5-0.5,0.7c-4.9-0.2-7.8-0.3-8.8-0.3c-5.1,0-8.5,0.1-10.3,0.2c-1,0-1.5-0.3-1.5-0.8c0-0.5,0.4-0.8,1.3-0.9
			c3.5-0.5,6.2-2.8,8-7.1c1.9-4.3,4.7-12,8.7-23.1C830.7,374.7,834.6,365,838.9,355.7z M837.1,365.6c-2.8,5.8-6.1,14.2-9.9,25.2
			c3.1-0.2,5.4-0.2,6.7-0.2l12.8,0.2c-1.1-3.2-2.7-7.4-4.7-12.6C839.5,372,837.9,367.8,837.1,365.6z M955.7,376
			c-0.4,0-0.8-0.5-1.2-1.5c-2.5-5.5-5.8-9.7-9.9-12.7s-8.4-4.5-13.1-4.5c-3.8,0-7.5,1.1-11,3.4c-3.6,2.3-6.5,5.8-8.7,10.6
			c-2.2,4.8-3.4,9.9-3.4,15.3c0,7.7,2.3,14.4,6.9,20c4.6,5.6,10.4,8.4,17.3,8.4c2.5,0,4.6-0.4,6.3-1.1c1.7-0.8,3.4-1.9,4.9-3.3
			c1.5-1.4,2.5-2.5,2.8-3.2c0.3-0.7,0.5-2.5,0.5-5.5c0-5-0.7-8.3-2-9.8c-1.3-1.6-3.4-2.4-6.4-2.4l-1.4,0c-0.9,0-1.3-0.3-1.3-0.9
			c0-0.7,0.5-1,1.5-1l2.4,0.1l10.3-0.1l12.6-0.3c0.7,0,1,0.3,1,1c0,0.6-0.4,1-1.2,1c-1.9,0.2-3.4,0.6-4.6,1.2
			c-1.2,0.6-1.9,1.4-2.2,2.2c-0.3,0.8-0.4,2.2-0.4,4.1c0,7.1-0.2,11-0.5,11.7c-0.3,0.7-3.2,2.3-8.5,4.8c-5.3,2.5-10.7,3.7-16,3.7
			c-8.9,0-16.5-2.9-22.8-8.6c-6.3-5.7-9.5-12.9-9.5-21.7c0-6,1.5-11.5,4.5-16.3c3-4.9,7.1-8.7,12.3-11.4c5.2-2.7,10.5-4,15.9-4
			c5,0,10.5,1.4,16.3,4.3c1.6,0.8,2.8,1.2,3.5,1.2c0.9,0,1.7-0.4,2.2-1.2c0.5-0.7,0.9-1,1.2-1c0.7,0,1.1,0.9,1.2,2.6
			c0.2,2.8,0.6,7,1.3,12.7c0.1,0.3,0.1,0.6,0.1,0.8C956.6,375.7,956.3,376,955.7,376z M1041.4,357.4c0.9,3.4,1.7,8.2,2.6,14.3
			c-0.1,0.2-0.3,0.4-0.5,0.4c-0.2,0-0.4-0.1-0.7-0.4c-2.1-3.4-4.1-5.9-6-7.7c-1.9-1.8-3.8-3-5.8-3.8c-1.9-0.7-5.3-1.1-10-1.1
			c-4.4,0-8,0.3-10.5,0.8c-0.2,0.3-0.4,0.9-0.4,1.7c0,0.2,0,0.6-0.1,1.1c-0.3,2.4-0.5,9-0.5,19.7c0,0.5,0,1.1,0.1,1.9
			c2.3,0.1,3.9,0.1,4.7,0.1c3.8,0,6.6-0.6,8.3-1.7c1.7-1.1,3.2-3.6,4.5-7.4c0.2-0.6,0.5-1,0.9-1c0.6,0,0.9,0.4,0.9,1.3l-0.2,1.8
			c-0.2,2.4-0.4,4.9-0.4,7.4c0,4.1,0.1,7.9,0.2,11.2c0,1-0.3,1.6-0.8,1.6c-0.4,0-0.7-0.4-0.8-1.1c-0.6-3.6-2-6.2-4-7.7
			c-2-1.6-6.5-2.4-13.3-2.4c-0.1,2.2-0.1,5.8-0.1,10.8c0,6.4,0.2,10.5,0.7,12.2c0.5,1.7,1.6,3.1,3.3,4.1c1.7,1,4.7,1.5,8.8,1.5
			c11.8,0,19.5-4.1,22.9-12.2c0.4-1,0.9-1.5,1.3-1.5c0.5,0,0.7,0.3,0.7,1c0,0.4-0.1,0.8-0.2,1.2c-0.2,0.6-0.6,2.7-1.3,6.5
			c-0.2,0.8-0.7,3.2-1.7,7.1l-19.1,0c-2.7,0-6.8-0.1-12.1-0.3c-5.3-0.2-10-0.3-14.1-0.4c-4.1,0-6.2-0.1-6.4-0.3
			c-0.2-0.2-0.3-0.3-0.3-0.5c0-0.6,0.5-0.9,1.5-0.9c3.4,0,5.6-0.9,6.7-2.7c1.1-1.8,1.6-6.1,1.6-13.1l0-9.3l0.1-8.7
			c0-1.8-0.1-5.1-0.3-10c-0.2-4.9-0.4-7.7-0.5-8.4c-0.2-0.7-0.6-1.4-1.4-2.1c-0.8-0.7-2.5-1.4-5.1-2.1c-0.8-0.2-1.2-0.5-1.2-1
			c0-0.5,0.5-0.8,1.6-0.8l9.3,0.5c3.3,0.2,11.3,0.2,24.2,0.2C1036.9,357.4,1041.2,357.4,1041.4,357.4z M680.3,157.5
			c-13.2-3.4-26.5-7.7-38.5-14.1c2.6-31.3-2.1-55.7-8.5-74.1c-4.2-12.1-9.8-24.1-21.4-33.7c-7.4-6.1-15.5-7.7-23.4-1.2
			c-12.3,10-10.7,29.6-7.4,43.5c5.9,23.2,20.8,43.2,39.1,58.3c4.7,3.8,9.7,7,14.9,9.8c-0.3,2.7-0.6,5.3-1,7.9
			c-6.3,37.8-25.9,104.3-51.4,98.1c-14.3-3.5-22.8-25.8-26.8-40.3c-7.9-28.9-7.3-55.4-5.7-80.6c0.6-7.9-10.8-9.6-11.1-2.1
			c-1.1,23.5,1.1,44.4,4.6,65.8c0.9,5.1,2.2,11.1,4.1,17.2c-3.4,6.5-8,12.3-13.3,17.3c-6,5.7-13,10.3-20.5,13.9
			c-7.4,3.6-15.4,6.1-23.4,7.4c-8.1,1.3-16.3,1.4-24.2,0c-7.9-1.4-15.5-4.4-21.7-9.1c-3.1-2.3-6-5.2-8.5-8.2c-2.6-3-4.9-6.3-6.8-9.7
			c-4-6.9-6.8-14.5-8.8-22.3c-1-3.9-1.7-7.9-2.3-11.9c-0.6-4-1-8-1.2-12.1c-0.8-16.2,0.9-32.6,4.6-48.5c0.3-1.3,0.6-2.7,1-4
			c5.7-0.2,11.3-0.6,17-1.1c8.4-0.8,16.8-1.7,25.2-3.1c8.3-1.4,16.6-3.4,24.8-5.9c8.1-2.5,16.1-5.7,23.8-9.6c3.8-2,7.6-4.1,11.2-6.6
			s7.1-5.1,10.3-8c6.5-5.9,12.3-13,15.8-21.5c1.8-4.2,3-8.8,3.3-13.6c0.3-4.7-0.3-9.6-1.9-14.2c-1.5-4.5-4-8.8-7-12.4
			c-3-3.6-6.5-6.8-10.5-9.5c-4-2.6-8.5-4.5-13.2-5.7c-4.7-1.1-9.5-1.5-14.2-1.2c-4.7,0.3-9.3,1.2-13.7,2.6
			c-4.4,1.3-8.6,3.1-12.7,5.2c-4,2.1-7.8,4.5-11.5,7c-3.6,2.6-7.1,5.4-10.3,8.4c-6.6,5.9-12.4,12.5-17.7,19.4
			c-1.3,1.7-2.6,3.5-3.9,5.3c-1.3,1.8-2.5,3.6-3.6,5.5c-2.3,3.7-4.5,7.5-6.5,11.4c-7.2,14.1-12.5,29.1-16,44.5
			c-7.4,0.2-14.9,0.1-22.3-0.2c-16.7-0.8-33.3-3.2-49.4-7.7c-16.1-4.5-31.6-11.2-45.3-20.9c-6.8-4.8-13.2-10.3-18.9-16.5
			c-5.7-6.2-10.7-12.9-14.9-20.2c4.1,7.3,9,14.2,14.5,20.5c5.6,6.3,11.9,11.9,18.7,16.9c13.6,10,29.2,17.1,45.3,22
			c16.2,4.9,32.9,7.5,49.8,8.6c7.2,0.5,14.5,0.7,21.7,0.6c-0.1,0.4-0.2,0.9-0.3,1.3c-3.4,16.9-4.7,34.3-3.2,51.6
			c0.7,8.6,2.2,17.2,4.7,25.6c2.5,8.4,5.9,16.5,10.6,24c4.7,7.5,10.8,14.1,18.2,19.2c7.4,5.1,16.1,8,24.7,9.2
			c8.7,1.1,17.5,0.6,25.9-1.2c8.4-1.8,16.5-4.8,24-8.9c7.5-4.1,14.4-9.3,20.2-15.5c5-5.3,9.2-11.5,12.2-18.1
			c8.9,29.6,29.1,63.4,58.7,33.9c17.1-19.5,30.7-61,34.6-97.1c13.7,6.4,28.7,10.3,43.4,13.3c34.6,7.1,66.1,3.1,99.7-6.5
			C748.3,166.1,716.7,167.7,680.3,157.5z M438.6,83.2c1.9-3.5,4-7,6.2-10.4l1.7-2.5l1.7-2.5c1.2-1.6,2.4-3.3,3.6-4.9
			c2.5-3.2,5-6.3,7.7-9.2c2.7-3,5.5-5.8,8.4-8.5c2.9-2.7,6-5.2,9.1-7.6c3.2-2.4,6.4-4.5,9.8-6.4c6.8-3.7,14-6.5,21.4-7.2
			c7.3-0.8,14.6,0.5,20.9,4.1c3.1,1.8,6,4.2,8.5,7c2.5,2.7,4.5,5.8,5.8,9.1c1.3,3.3,2,6.9,1.9,10.6c-0.1,3.6-0.9,7.3-2.2,10.9
			c-2.7,7.1-7.5,13.6-13.2,19.2c-2.9,2.8-6,5.4-9.3,7.7c-3.3,2.4-6.7,4.6-10.3,6.6c-7.1,4-14.7,7.3-22.5,10.1
			c-7.8,2.7-15.8,4.9-23.9,6.6c-8.1,1.7-16.4,3-24.7,3.9c-5.2,0.6-10.5,1-15.8,1.3C427.1,108,432.1,95.2,438.6,83.2z M624,131.4
			c-20.8-17.7-34.5-43.4-37.3-70.6c-2.8-19.5,9.2-33,26.2-12.2c10.7,13.2,15.7,25.3,19.2,41.9c2.7,12.5,4.5,31.6,3.5,49.4
			C631.6,137.3,627.7,134.5,624,131.4z"/>
	</defs>
	<clipPath id="SVGID_2_">
		<use xlink:href="#SVGID_1_"  style="overflow:visible;"/>
	</clipPath>
	<linearGradient id="XMLID_2_" gradientUnits="userSpaceOnUse" x1="148.6446" y1="592.7196" x2="910.5004" y2="-169.1362">
		<stop  offset="0" style="stop-color:#EED25A"/>
		<stop  offset="0.1443" style="stop-color:#CA8723"/>
		<stop  offset="0.269" style="stop-color:#EECE66"/>
		<stop  offset="0.4133" style="stop-color:#CA8723"/>
		<stop  offset="0.532" style="stop-color:#E3B04D"/>
		<stop  offset="0.6458" style="stop-color:#EECE66"/>
		<stop  offset="0.7704" style="stop-color:#CA8723"/>
		<stop  offset="0.8704" style="stop-color:#EED25A"/>
		<stop  offset="1" style="stop-color:#CA8723"/>
	</linearGradient>
	<rect id="XMLID_65_" x="-11.3" y="-9.2" class="st0" width="1081.7" height="442.1"/>
</g>
<g>
	<path class="st1" d="M308.3,541.2h-2.9c-0.3,0-0.6-0.1-0.9-0.3c-0.2-0.2-0.4-0.4-0.5-0.7l-6.2-15.3h-25.9l-6.2,15.3
		c-0.1,0.3-0.3,0.5-0.5,0.7c-0.2,0.2-0.5,0.3-0.9,0.3h-2.9l21.6-52.7h3.8L308.3,541.2z M273,522h23.6l-10.8-26.6
		c-0.2-0.4-0.3-0.9-0.5-1.4c-0.2-0.5-0.3-1.1-0.5-1.7c-0.2,0.6-0.3,1.2-0.5,1.7c-0.2,0.5-0.3,1-0.5,1.5L273,522z"/>
	<path class="st1" d="M383.6,532.3c0.2,0,0.5,0.1,0.6,0.3l1.5,1.6c-1.1,1.2-2.3,2.2-3.6,3.1c-1.3,0.9-2.7,1.7-4.2,2.4
		c-1.5,0.7-3.2,1.2-5,1.5s-3.8,0.5-6,0.5c-3.7,0-7-0.6-10-1.9c-3-1.3-5.7-3.1-7.8-5.4c-2.2-2.3-3.9-5.2-5.1-8.5
		c-1.2-3.3-1.8-7-1.8-11.1c0-4,0.6-7.7,1.9-11c1.3-3.3,3-6.1,5.3-8.5c2.3-2.4,5-4.2,8.2-5.5c3.2-1.3,6.7-2,10.5-2
		c1.9,0,3.7,0.1,5.3,0.4c1.6,0.3,3.1,0.7,4.5,1.2c1.4,0.5,2.7,1.2,3.9,2c1.2,0.8,2.4,1.7,3.6,2.8l-1.2,1.7c-0.2,0.3-0.5,0.4-0.9,0.4
		c-0.2,0-0.5-0.1-0.9-0.4c-0.3-0.3-0.8-0.6-1.3-1c-0.5-0.4-1.2-0.8-1.9-1.3c-0.8-0.5-1.7-0.9-2.7-1.3c-1-0.4-2.2-0.7-3.6-1
		c-1.4-0.3-2.9-0.4-4.7-0.4c-3.2,0-6.1,0.6-8.8,1.7c-2.7,1.1-5,2.7-6.9,4.7c-1.9,2-3.4,4.5-4.5,7.5c-1.1,2.9-1.6,6.2-1.6,9.8
		c0,3.7,0.5,7.1,1.6,10c1.1,2.9,2.5,5.4,4.4,7.4c1.9,2,4.1,3.6,6.7,4.7c2.6,1.1,5.4,1.6,8.4,1.6c1.9,0,3.6-0.1,5-0.4
		c1.5-0.2,2.8-0.6,4.1-1.1c1.2-0.5,2.4-1.1,3.5-1.8c1.1-0.7,2.1-1.6,3.2-2.5c0.1-0.1,0.2-0.2,0.4-0.2
		C383.4,532.3,383.5,532.3,383.6,532.3z"/>
	<path class="st1" d="M467.2,541.2h-2.9c-0.3,0-0.6-0.1-0.9-0.3c-0.2-0.2-0.4-0.4-0.5-0.7l-6.2-15.3h-25.9l-6.2,15.3
		c-0.1,0.3-0.3,0.5-0.5,0.7c-0.2,0.2-0.5,0.3-0.9,0.3h-2.9l21.6-52.7h3.8L467.2,541.2z M432,522h23.6l-10.8-26.6
		c-0.2-0.4-0.3-0.9-0.5-1.4c-0.2-0.5-0.3-1.1-0.5-1.7c-0.2,0.6-0.3,1.2-0.5,1.7c-0.2,0.5-0.3,1-0.5,1.5L432,522z"/>
	<path class="st1" d="M549.8,514.8c0,4.1-0.6,7.7-1.8,11c-1.2,3.3-2.9,6-5.1,8.3c-2.2,2.3-4.9,4-7.9,5.3c-3.1,1.2-6.5,1.8-10.2,1.8
		h-19.2v-52.7h19.2c3.8,0,7.2,0.6,10.2,1.8c3.1,1.2,5.7,3,7.9,5.3c2.2,2.3,3.9,5.1,5.1,8.3C549.2,507.1,549.8,510.8,549.8,514.8z
		 M545.8,514.8c0-3.7-0.5-7-1.5-9.8c-1-2.9-2.5-5.3-4.3-7.3c-1.9-2-4.1-3.5-6.7-4.5c-2.6-1-5.5-1.6-8.7-1.6h-15.4v46.5h15.4
		c3.2,0,6.1-0.5,8.7-1.6c2.6-1,4.8-2.6,6.7-4.5c1.9-2,3.3-4.4,4.3-7.3C545.3,521.8,545.8,518.5,545.8,514.8z"/>
	<path class="st1" d="M623.4,488.5v3.2h-27.8v21.3h23.1v3.1h-23.1v22h27.8v3.2h-31.6v-52.7H623.4z"/>
	<path class="st1" d="M692,528.1c0.1-0.4,0.3-0.8,0.5-1.2c0.2-0.4,0.3-0.8,0.5-1.1l20.7-36.6c0.2-0.3,0.4-0.5,0.6-0.6
		c0.2-0.1,0.5-0.1,0.8-0.1h2.6v52.7h-3.4v-44.9c0-0.6,0-1.3,0.1-2L693.8,531c-0.3,0.6-0.8,1-1.5,1h-0.6c-0.6,0-1.1-0.3-1.5-1
		l-21.3-36.9c0.1,0.7,0.1,1.4,0.1,2.1v44.9h-3.3v-52.7h2.6c0.3,0,0.6,0,0.8,0.1c0.2,0.1,0.4,0.3,0.6,0.6l21.3,36.7
		C691.4,526.5,691.7,527.3,692,528.1z"/>
	<path class="st1" d="M779.7,519.4v21.8h-3.8v-21.8l-19.5-31h3.3c0.3,0,0.6,0.1,0.8,0.2c0.2,0.2,0.4,0.4,0.6,0.7l15.1,24.2
		c0.3,0.6,0.6,1.1,0.9,1.7c0.2,0.5,0.5,1.1,0.7,1.6c0.2-0.5,0.4-1.1,0.7-1.6c0.2-0.5,0.5-1.1,0.9-1.7l15.1-24.2
		c0.1-0.3,0.3-0.5,0.6-0.7c0.2-0.2,0.5-0.3,0.9-0.3h3.4L779.7,519.4z"/>
</g>
</svg>
