<?xml version="1.0" encoding="utf-8"?>
<!-- Generator: Adobe Illustrator 25.2.3, SVG Export Plug-In . SVG Version: 6.00 Build 0)  -->
<svg version="1.1" id="transport" xmlns="http://www.w3.org/2000/svg" xmlns:xlink="http://www.w3.org/1999/xlink" x="0px" y="0px"
	 viewBox="0 0 26.7 26" style="enable-background:new 0 0 26.7 26;" xml:space="preserve">
<style type="text/css">
	.st0{fill:none;stroke:url(#SVGID_1_);stroke-width:1.5;stroke-linecap:round;stroke-linejoin:round;stroke-miterlimit:10;}
	.st1{fill:none;stroke:url(#SVGID_2_);stroke-width:1.5;stroke-linecap:round;stroke-linejoin:round;stroke-miterlimit:10;}
	.st2{fill:none;stroke:url(#SVGID_3_);stroke-width:1.5;stroke-linecap:round;stroke-linejoin:round;stroke-miterlimit:10;}
</style>
<g>
	<linearGradient id="SVGID_1_" gradientUnits="userSpaceOnUse" x1="15.8002" y1="10.7776" x2="22.3002" y2="10.7776">
		<stop  offset="0" style="stop-color:#EECE66"/>
		<stop  offset="1" style="stop-color:#CA8723"/>
	</linearGradient>
	<circle class="st0" cx="19.1" cy="10.8" r="2.5"/>
	<linearGradient id="SVGID_2_" gradientUnits="userSpaceOnUse" x1="7.8002" y1="4.7776" x2="14.3002" y2="4.7776">
		<stop  offset="0" style="stop-color:#EECE66"/>
		<stop  offset="1" style="stop-color:#CA8723"/>
	</linearGradient>
	<circle class="st1" cx="11.1" cy="4.8" r="2.5"/>
	<linearGradient id="SVGID_3_" gradientUnits="userSpaceOnUse" x1="1.3002" y1="18.244" x2="25.3798" y2="18.244">
		<stop  offset="0" style="stop-color:#EECE66"/>
		<stop  offset="1" style="stop-color:#CA8723"/>
	</linearGradient>
	<path class="st2" d="M16.1,18.8c0,0,4.2-1.7,5.7-2c1.2-0.2,2,0.3,2.5,0.7c0.6,0.5,0.4,1.4-0.3,1.7l-11.8,4.2
		c-0.9,0.3-1.8,0.3-2.7-0.1l-6.9-3.2c-0.4-0.2-0.6-0.5-0.6-0.9v-5.4c0-0.6,0.5-1.1,1.1-1c1.1,0.1,2.7,0.5,4.9,2h0.2h4.2
		C14.8,14.8,16.1,16.6,16.1,18.8h-0.4H8.1"/>
</g>
</svg>
