<?xml version="1.0" encoding="utf-8"?>
<!-- Generator: Adobe Illustrator 25.2.3, SVG Export Plug-In . SVG Version: 6.00 Build 0)  -->
<svg version="1.1" id="transport" xmlns="http://www.w3.org/2000/svg" xmlns:xlink="http://www.w3.org/1999/xlink" x="0px" y="0px"
	 viewBox="0 0 204.3 114.2" style="enable-background:new 0 0 204.3 114.2;" xml:space="preserve">
	 <defs>
	  <linearGradient id="gradient" x1="0%" y1="0%" x2="0%" y2="100%">
	 	 <stop offset="0%" stop-color="#eece66" />
	 	 <stop offset="100%" stop-color="#ca8723" />
	  </linearGradient>
	 </defs>
	 <style type="text/css">
	  .st0{fill:none;stroke="url(#gradient)";stroke-width:8;stroke-linecap:round;stroke-linejoin:round;stroke-miterlimit:10;}
	 </style>
<g id="XMLID_99_" stroke="url(#gradient)">
	<g id="XMLID_100_">
		<path id="XMLID_117_" class="st0" d="M138.6,104.3c-1.7,0.3-3.3,0.5-5,0.7l0,0c-12.9,1.2-26.1,1.3-39,1.2c-12-0.1-24.4,0-36.5-1
			c-11.3-0.9-24-1.8-33.3-8.8C17.4,90.7,14.2,83.3,13,79.5c-0.6-2-2.2-3.8-4.2-4.8c-1.1-0.5-2.4-1-3.7-1.2"/>
		<path id="XMLID_116_" class="st0" d="M14.4,71.2c2.6,0.6,5.5,0.7,7.3,0.6c8.9-0.2,17.2-3.7,25.8-5.9"/>
		<path id="XMLID_115_" class="st0" d="M91.2,67.2c-0.1,0-0.1,0-0.2,0c-0.6-0.1-1.2-0.1-1.8-0.2c0,0-0.1,0-0.1,0
			c-2.5-0.3-5.1-0.6-7.6-1c-19.8-3.3-33.5-0.1-34.1,0"/>
		<path id="XMLID_114_" class="st0" d="M91.1,49.4c-0.1,0-0.1,0-0.2,0h0.3C91.2,49.4,91.1,49.4,91.1,49.4c-0.1,0-0.1,0-0.2,0
			c-1.2-0.1-2.5-0.3-3.7-0.9c-4.3-1.9-8-3.9-12.9-3.6c-4.3,0.2-8.6,1.9-11.9,4.8c-2.8,2.4-4.9,5.4-7.3,8.3c-2.4,2.8-5,5.5-7.7,8.1
			l0,0"/>
		<path id="XMLID_113_" class="st0" d="M91.1,67.2c-0.1,0-0.1,0-0.2,0"/>
		<path id="XMLID_112_" class="st0" d="M91.4,11.2c-0.2,0-0.3-0.1-0.4-0.1c-0.7-0.2-1.1-0.5-1.4-0.7c-3.3-2.5-7.4-3.5-9.9-3.9
			c-1.3-0.2-2.6-0.1-3.8,0.3C39.3,18.3,19.7,44.5,10.9,60.2c0,0,0,0,0,0"/>
		<path id="XMLID_110_" class="st0" d="M91.4,11.2c0.2,0,0.3,0,0.4-0.1c0.7-0.2,1.1-0.5,1.4-0.7c3.3-2.5,7.4-3.5,9.9-3.9
			c1.3-0.2,2.6-0.1,3.8,0.3c10.3,3.3,19.3,7.7,27.1,12.8"/>
		<path id="XMLID_108_" class="st0" d="M91.5,11.2c0,0-2.9,3.7-3.6,7"/>
		<g id="XMLID_101_">
			<path id="XMLID_107_" class="st0" d="M91.2,67.2c0.1,0,0.1,0,0.2,0c0.6-0.1,1.2-0.1,1.8-0.2c0,0,0.1,0,0.1,0
				c2.5-0.3,5.1-0.6,7.6-1c19.8-3.3,33.5-0.1,34.1,0"/>
			<path id="XMLID_106_" class="st0" d="M135,65.9L135,65.9c-2.7-2.6-5.3-5.3-7.7-8.1c-2.4-2.8-4.4-5.8-7.3-8.3
				c-3.3-2.8-7.5-4.5-11.9-4.8c-4.9-0.3-8.6,1.7-12.9,3.6c-1.3,0.6-2.5,0.8-3.7,0.9c-0.1,0-0.1,0-0.2,0c-0.1,0-0.1,0-0.2,0h0.3
				c-0.1,0-0.1,0-0.2,0"/>
			<path id="XMLID_102_" class="st0" d="M91.5,67.2c-0.1,0-0.1,0-0.2,0"/>
		</g>
	</g>
	<path id="XMLID_111_" class="st0" d="M182.5,75.1l-14.1-32.3c-16-35.8-24.2-37.2-24.2-37.2c0.7,9-6.9,27.3-9.8,34.6
		c-0.6,1.6-0.6,3.4,0.1,5l18.7,42.8"/>
	<path id="XMLID_109_" class="st0" d="M154.5,108.4l-6.1-13.7c-1-2.2,0-4.8,2.2-5.7L185.1,74c2.2-1,4.8,0,5.7,2.2l8.2,18.7"/>
</g>
</svg>
