<?xml version="1.0" encoding="utf-8"?>
<!-- Generator: Adobe Illustrator 26.0.1, SVG Export Plug-In . SVG Version: 6.00 Build 0)  -->
<svg version="1.1" id="Calque_1" xmlns="http://www.w3.org/2000/svg" xmlns:xlink="http://www.w3.org/1999/xlink" x="0px" y="0px"
	 viewBox="0 0 22.5 22.5" style="enable-background:new 0 0 22.5 22.5;" xml:space="preserve">
<style type="text/css">
	.st0{fill:url(#SVGID_1_);}
	.st1{fill:url(#SVGID_00000114763303415358147580000008306666012294910893_);}
	.st2{fill:url(#SVGID_00000106841479741848402180000009143726770434069918_);}
	.st3{fill:url(#SVGID_00000137826478881853162320000003875126028027651763_);}
	.st4{fill:url(#SVGID_00000078729178601259033970000009437004783406530706_);}
	.st5{fill:url(#SVGID_00000013915663877354269530000006609294248653091744_);}
	.st6{fill:url(#SVGID_00000119120122773185556700000009810346424557134466_);}
	.st7{fill:url(#SVGID_00000052082410833644310480000006387780162036986785_);}
	.st8{fill:url(#SVGID_00000054235707645515145500000018400775430661158842_);}
</style>
<linearGradient id="SVGID_1_" gradientUnits="userSpaceOnUse" x1="7.4181" y1="-8.5819" x2="28.8771" y2="12.8771">
	<stop  offset="0" style="stop-color:#CA8723"/>
	<stop  offset="0.5" style="stop-color:#E3B04D"/>
	<stop  offset="1" style="stop-color:#EECE66"/>
</linearGradient>
<path class="st0" d="M19.2,6.5C17.5,6.5,16,5,16,3.2S17.5,0,19.2,0s3.2,1.5,3.2,3.2S21,6.5,19.2,6.5z M19.2,1.5
	c-1,0-1.8,0.8-1.8,1.8S18.3,5,19.2,5S21,4.2,21,3.2S20.2,1.5,19.2,1.5z"/>
<linearGradient id="SVGID_00000151523913160504283380000001452091222874525103_" gradientUnits="userSpaceOnUse" x1="-0.5819" y1="-0.5819" x2="20.8771" y2="20.8771">
	<stop  offset="0" style="stop-color:#CA8723"/>
	<stop  offset="0.5" style="stop-color:#E3B04D"/>
	<stop  offset="1" style="stop-color:#EECE66"/>
</linearGradient>
<path style="fill:url(#SVGID_00000151523913160504283380000001452091222874525103_);" d="M3.2,6.5C1.5,6.5,0,5,0,3.2S1.5,0,3.2,0
	s3.2,1.5,3.2,3.2S5,6.5,3.2,6.5z M3.2,1.5c-1,0-1.8,0.8-1.8,1.8S2.3,5,3.2,5S5,4.2,5,3.2S4.2,1.5,3.2,1.5z"/>
<linearGradient id="SVGID_00000059285618659969530080000010710430529313280168_" gradientUnits="userSpaceOnUse" x1="3.4181" y1="-4.5819" x2="24.8771" y2="16.8771">
	<stop  offset="0" style="stop-color:#CA8723"/>
	<stop  offset="0.5" style="stop-color:#E3B04D"/>
	<stop  offset="1" style="stop-color:#EECE66"/>
</linearGradient>
<path style="fill:url(#SVGID_00000059285618659969530080000010710430529313280168_);" d="M11.2,6.5C9.5,6.5,8,5,8,3.2S9.5,0,11.2,0
	s3.2,1.5,3.2,3.2S13,6.5,11.2,6.5z M11.2,1.5c-1,0-1.8,0.8-1.8,1.8S10.3,5,11.2,5S13,4.2,13,3.2S12.2,1.5,11.2,1.5z"/>
<linearGradient id="SVGID_00000078748611061071826630000017101212404433286821_" gradientUnits="userSpaceOnUse" x1="3.4181" y1="-4.5819" x2="24.8771" y2="16.8771">
	<stop  offset="0" style="stop-color:#CA8723"/>
	<stop  offset="0.5" style="stop-color:#E3B04D"/>
	<stop  offset="1" style="stop-color:#EECE66"/>
</linearGradient>
<path style="fill:url(#SVGID_00000078748611061071826630000017101212404433286821_);" d="M19.2,14.5c-1.8,0-3.2-1.5-3.2-3.2
	S17.5,8,19.2,8s3.2,1.5,3.2,3.2S21,14.5,19.2,14.5z M19.2,9.5c-1,0-1.8,0.8-1.8,1.8s0.8,1.8,1.8,1.8s1.8-0.8,1.8-1.8
	S20.2,9.5,19.2,9.5z"/>
<linearGradient id="SVGID_00000029732869228702624210000002056615775406472578_" gradientUnits="userSpaceOnUse" x1="-4.5819" y1="3.4181" x2="16.8771" y2="24.8771">
	<stop  offset="0" style="stop-color:#CA8723"/>
	<stop  offset="0.5" style="stop-color:#E3B04D"/>
	<stop  offset="1" style="stop-color:#EECE66"/>
</linearGradient>
<path style="fill:url(#SVGID_00000029732869228702624210000002056615775406472578_);" d="M3.2,14.5C1.5,14.5,0,13,0,11.2
	S1.5,8,3.2,8s3.2,1.5,3.2,3.2S5,14.5,3.2,14.5z M3.2,9.5c-1,0-1.8,0.8-1.8,1.8S2.3,13,3.2,13S5,12.2,5,11.2S4.2,9.5,3.2,9.5z"/>
<linearGradient id="SVGID_00000127765947332232282830000001421364617293109910_" gradientUnits="userSpaceOnUse" x1="-0.5819" y1="-0.5819" x2="20.8771" y2="20.8771">
	<stop  offset="0" style="stop-color:#CA8723"/>
	<stop  offset="0.5" style="stop-color:#E3B04D"/>
	<stop  offset="1" style="stop-color:#EECE66"/>
</linearGradient>
<path style="fill:url(#SVGID_00000127765947332232282830000001421364617293109910_);" d="M11.2,14.5C9.5,14.5,8,13,8,11.2
	S9.5,8,11.2,8s3.2,1.5,3.2,3.2S13,14.5,11.2,14.5z M11.2,9.5c-1,0-1.8,0.8-1.8,1.8s0.8,1.8,1.8,1.8s1.8-0.8,1.8-1.8
	S12.2,9.5,11.2,9.5z"/>
<linearGradient id="SVGID_00000116944981390769763790000003314138155354475705_" gradientUnits="userSpaceOnUse" x1="-0.5819" y1="-0.5819" x2="20.8771" y2="20.8771">
	<stop  offset="0" style="stop-color:#CA8723"/>
	<stop  offset="0.5" style="stop-color:#E3B04D"/>
	<stop  offset="1" style="stop-color:#EECE66"/>
</linearGradient>
<path style="fill:url(#SVGID_00000116944981390769763790000003314138155354475705_);" d="M19.2,22.5c-1.8,0-3.2-1.5-3.2-3.2
	s1.5-3.2,3.2-3.2s3.2,1.5,3.2,3.2S21,22.5,19.2,22.5z M19.2,17.5c-1,0-1.8,0.8-1.8,1.8s0.8,1.8,1.8,1.8s1.8-0.8,1.8-1.8
	S20.2,17.5,19.2,17.5z"/>
<linearGradient id="SVGID_00000180349845221391045160000003875070337671411843_" gradientUnits="userSpaceOnUse" x1="-8.5819" y1="7.4181" x2="12.8771" y2="28.8771">
	<stop  offset="0" style="stop-color:#CA8723"/>
	<stop  offset="0.5" style="stop-color:#E3B04D"/>
	<stop  offset="1" style="stop-color:#EECE66"/>
</linearGradient>
<path style="fill:url(#SVGID_00000180349845221391045160000003875070337671411843_);" d="M3.2,22.5C1.5,22.5,0,21,0,19.2
	S1.5,16,3.2,16s3.2,1.5,3.2,3.2S5,22.5,3.2,22.5z M3.2,17.5c-1,0-1.8,0.8-1.8,1.8S2.3,21,3.2,21S5,20.2,5,19.2S4.2,17.5,3.2,17.5z"
	/>
<linearGradient id="SVGID_00000005256391747997874000000009542856568647780994_" gradientUnits="userSpaceOnUse" x1="-4.5819" y1="3.4181" x2="16.8771" y2="24.8771">
	<stop  offset="0" style="stop-color:#CA8723"/>
	<stop  offset="0.5" style="stop-color:#E3B04D"/>
	<stop  offset="1" style="stop-color:#EECE66"/>
</linearGradient>
<path style="fill:url(#SVGID_00000005256391747997874000000009542856568647780994_);" d="M11.2,22.5C9.5,22.5,8,21,8,19.2
	S9.5,16,11.2,16s3.2,1.5,3.2,3.2S13,22.5,11.2,22.5z M11.2,17.5c-1,0-1.8,0.8-1.8,1.8s0.8,1.8,1.8,1.8s1.8-0.8,1.8-1.8
	S12.2,17.5,11.2,17.5z"/>
</svg>
