<?xml version="1.0" encoding="utf-8"?>
<!-- Generator: Adobe Illustrator 26.0.1, SVG Export Plug-In . SVG Version: 6.00 Build 0)  -->
<svg version="1.1" id="Calque_1" xmlns="http://www.w3.org/2000/svg" xmlns:xlink="http://www.w3.org/1999/xlink" x="0px" y="0px"
	 viewBox="0 0 24.1 24.1" style="enable-background:new 0 0 24.1 24.1;" xml:space="preserve">
<style type="text/css">
	.st0{fill:#FFFFFF;}
</style>
<path class="st0" d="M23.6,5.1L19,0.5c-0.7-0.7-1.8-0.7-2.5,0L1.2,15.8c-0.1,0.1-0.1,0.1-0.2,0.2c0,0,0,0.1,0,0.1c0,0,0,0.1,0,0.1
	l-1,7c0,0.2,0,0.5,0.2,0.6c0.1,0.1,0.3,0.2,0.5,0.2c0,0,0.1,0,0.1,0l7-1c0,0,0.1,0,0.1,0c0,0,0.1,0,0.1,0c0.1,0,0.2-0.1,0.2-0.2
	L23.6,7.6c0.3-0.3,0.5-0.8,0.5-1.2S23.9,5.4,23.6,5.1z M2.3,17.9l3.9,3.9l-4.5,0.6L2.3,17.9z M22.5,6.5L7.7,21.3l-4.9-4.9L17.6,1.6
	c0.1-0.1,0.3-0.1,0.4,0l1.8,1.8L8.2,14.8c-0.3,0.3-0.3,0.8,0,1.1c0.1,0.1,0.3,0.2,0.5,0.2s0.4-0.1,0.5-0.2L20.7,4.4l1.8,1.8
	C22.6,6.2,22.6,6.4,22.5,6.5z"/>
</svg>
