<?xml version="1.0" encoding="utf-8"?>
<!-- Generator: Adobe Illustrator 25.2.3, SVG Export Plug-In . SVG Version: 6.00 Build 0)  -->
<svg version="1.1" id="Mode_Isolation" xmlns="http://www.w3.org/2000/svg" xmlns:xlink="http://www.w3.org/1999/xlink" x="0px"
	 y="0px" viewBox="0 0 25.3 25.3" style="enable-background:new 0 0 25.3 25.3;" xml:space="preserve">
<style type="text/css">
	.st0{fill:none;stroke:#000000;stroke-width:1.5;stroke-linecap:round;stroke-linejoin:round;stroke-miterlimit:10;}
</style>
<g>
	<path class="st0" d="M19.1,8c0,1.7-1.3,3.1-3,3.1s-3-1.4-3-3.1V6.3c0-1.7,1.3-3.1,3-3.1s3,1.4,3,3.1V8z"/>
	<circle class="st0" cx="8.1" cy="6.2" r="2.5"/>
	<path class="st0" d="M10.7,14.3c-1-0.7-2.2-1.1-3.5-1.1c-2.9,0-5.3,2.1-5.9,4.8c-0.1,0.6,0.4,1.1,1,1.1h4.9"/>
	<path class="st0" d="M16.1,14.2L16.1,14.2c-4,0-7.4,3-7.9,6.9c-0.1,0.6,0.4,1.1,1,1.1h13.8c0.6,0,1.1-0.5,1-1.1
		C23.5,17.1,20.2,14.2,16.1,14.2z"/>
</g>
</svg>
