<?xml version="1.0" encoding="utf-8"?>
<!-- Generator: Adobe Illustrator 25.2.3, SVG Export Plug-In . SVG Version: 6.00 Build 0)  -->
<svg version="1.1" id="transport" xmlns="http://www.w3.org/2000/svg" xmlns:xlink="http://www.w3.org/1999/xlink" x="0px" y="0px"
	 viewBox="0 0 186.3 173" style="enable-background:new 0 0 186.3 173;" xml:space="preserve">
	 <defs>
	 	<linearGradient id="gradient" x1="0%" y1="0%" x2="0%" y2="100%">
	 		<stop offset="0%" stop-color="#eece66" />
	 		<stop offset="100%" stop-color="#ca8723" />
	 	</linearGradient>
	 </defs>
	 <style type="text/css">
	 	.st0{fill:none;stroke="url(#gradient)";stroke-width:3;stroke-linecap:round;stroke-linejoin:round;stroke-miterlimit:10;}
	 </style>
<g id="XMLID_380_"  stroke="url(#gradient)">
	<g id="XMLID_240_">
		<path id="XMLID_280_" class="st0" d="M161.9,18.2c-8.1-6-15.9-10.1-22.2-12.8c-2.5-1.1-5.3-0.3-6.4,1.9c-3.5,7-9.6,24.2-12.3,44.6
			"/>
		<path id="XMLID_289_" class="st0" d="M163.5,19.4c7.9,6.3,13.9,12.7,18.2,18.1c1.7,2.1,1.6,5-0.2,6.6
			c-5.9,5.2-20.7,15.6-39.7,23.5"/>
		<polygon id="XMLID_281_" class="st0" points="121,51.9 112.1,69.6 127.4,81.1 141.8,67.6 		"/>
		<path id="XMLID_285_" class="st0" d="M126.6,55.7c2-7,4.7-14.6,8-22.5c1.9-4.5,3.9-8.8,5.9-12.8"/>
		<path id="XMLID_284_" class="st0" d="M136.1,62.5c6.1-3.9,12.7-8.6,19.3-14c3.8-3.1,7.4-6.2,10.6-9.2"/>
		<path id="XMLID_283_" class="st0" d="M132,60.1c1.5-3.2,3.4-6.7,5.7-10.3c1.5-2.3,3-4.5,4.4-6.5"/>
		<path id="XMLID_290_" class="st0" d="M112,69.7l-58.7,84.9c-1.4,2-1,4.8,1,6.3l0,0c2,1.5,4.8,1.2,6.4-0.7l66.7-79.1"/>
	</g>
	<g id="XMLID_314_">
		<line id="XMLID_308_" class="st0" x1="94.9" y1="34.8" x2="86.7" y2="41.4"/>
		<line id="XMLID_309_" class="st0" x1="70.2" y1="54.5" x2="75" y2="50.1"/>
		<path id="XMLID_312_" class="st0" d="M35.4,22.1c1.9,1.9,3.8,4,5.6,6.3c7.1,8.6,12,17.4,15.4,25c1.7-0.5,5.2-1.2,9.4-0.4
			c4.5,0.9,7.4,3.1,8.8,4.3c3.6-3,8-6.1,13-9.1c7.3-4.4,14.2-7.3,20.1-9.4"/>
		<path id="XMLID_307_" class="st0" d="M100.7,34l-5.8,0.9l0-4.1c0.2-1.3-0.4-2.5-1.5-3.1c-5.1-2.9-11.4-5.7-18.9-7.4
			c-0.9-0.2-1.8,0-2.5,0.5l-4.2,2.9l-2-3.4c-0.5-0.9-1.5-1.5-2.5-1.6C55.7,18,49.1,18.7,44,19.8c-0.7,0.1-0.9,0.9-0.4,1.4
			c1.2,1.2,3.2,3.3,4.5,5.1"/>
		<line id="XMLID_310_" class="st0" x1="67.7" y1="23.5" x2="66.9" y2="30"/>
		<path id="XMLID_311_" class="st0" d="M61.5,52.6c-0.7-2.4-1.5-5.1-2.7-7.9c-0.7-1.6-1.3-3.1-2-4.5"/>
		<polyline id="XMLID_313_" class="st0" points="56.4,53.4 56.9,64.9 69.5,67.6 74.6,57.3 		"/>
		<path id="XMLID_305_" class="st0" d="M69.5,67.6l-22.1,84c-0.3,1.3-1.6,2.1-2.9,1.8l0,0c-1.3-0.3-2.1-1.5-1.9-2.8l14.4-85.6"/>
	</g>
	<g id="XMLID_315_">
		<path id="XMLID_319_" class="st0" d="M151.4,111.1c0.5,0.7,1.6,0.8,2.5,0.3c3.1-1.9,9.6-6.8,11.2-15.7l0,0
			c-9-1.2-15.6,3.6-18.3,5.9c-0.8,0.7-1,1.8-0.5,2.5L151.4,111.1z"/>
		<g id="XMLID_316_">
			<path id="XMLID_318_" class="st0" d="M144.3,116.4l-74.7,51.5c-1.1,0.8-2.4,0.8-3,0.1l0,0c-0.5-0.7-0.1-2,1-2.8l71.5-55.9"/>
			<polyline id="XMLID_317_" class="st0" points="145.9,103.6 139,109.4 144.2,116.4 151.7,111.5 			"/>
		</g>
	</g>
	<g id="XMLID_320_">
		<g id="XMLID_321_">
			<g id="XMLID_322_">
				<path id="XMLID_334_" class="st0" d="M18.9,63.2l17.7,86.9c0.3,1.3-0.2,2.5-1,2.7l0,0c-0.9,0.2-1.8-0.7-2.2-2L10.5,65.1"/>
				<polygon id="XMLID_327_" class="st0" points="8,56.8 10.6,65.2 18.9,63.2 17.4,54.6 				"/>
			</g>
		</g>
		<path id="XMLID_344_" class="st0" d="M8,56.8L2.5,42.5c-0.3-0.8,0.2-1.6,0.9-1.8l10.9-2.6c0.8-0.2,1.6,0.4,1.6,1.2l1.4,15.2"/>
	</g>
</g>
</svg>
