<?xml version="1.0" encoding="utf-8"?>
<!-- Generator: Adobe Illustrator 25.2.3, SVG Export Plug-In . SVG Version: 6.00 Build 0)  -->
<svg version="1.1" id="transport" xmlns="http://www.w3.org/2000/svg" xmlns:xlink="http://www.w3.org/1999/xlink" x="0px" y="0px"
	 viewBox="0 0 121.4 147.4" style="enable-background:new 0 0 121.4 147.4;" xml:space="preserve">
	 <defs>
	 	<linearGradient id="gradient" x1="0%" y1="0%" x2="0%" y2="100%">
	 		<stop offset="0%" stop-color="#eece66" />
	 		<stop offset="100%" stop-color="#ca8723" />
	 	</linearGradient>
	 </defs>
	 <style type="text/css">
	 	.st0{fill:none;stroke="url(#gradient)";stroke-width:3;stroke-linecap:round;stroke-linejoin:round;stroke-miterlimit:10;}
	 </style>
<g id="XMLID_544_"  stroke="url(#gradient)">
	<circle id="XMLID_541_" class="st0" cx="75.5" cy="46.8" r="43.4"/>
	<path id="XMLID_546_" class="st0" d="M110.4,46.8c0,19.2-15.6,34.9-34.9,34.9c-19.2,0-34.9-15.6-34.9-34.9
		c0-19.2,15.6-34.9,34.9-34.9c4.7,0,9.2,0.9,13.3,2.6"/>
	<path id="XMLID_545_" class="st0" d="M102.4,24.5c3.1,3.7,5.4,8,6.7,12.8"/>
	<path id="XMLID_565_" class="st0" d="M55.1,98.5c6.1-1.4,13.1-2.1,20.4-2.1c24,0,43.4,8,43.4,17.9c0,9.9-19.4,17.9-43.4,17.9
		c-0.7,0-1.4,0-2.2,0c-1.2,0-2.5-0.1-3.7-0.1c-0.5,0-0.9-0.1-1.3-0.1c-2.5-0.2-4.9-0.4-7.2-0.8c-0.4-0.1-0.8-0.1-1.2-0.2
		c-1.3-0.2-2.5-0.4-3.7-0.7c-0.5-0.1-0.9-0.2-1.4-0.3c-0.6-0.1-1.2-0.3-1.8-0.4"/>
	<path id="XMLID_563_" class="st0" d="M44.3,138.9c7.9,3.4,19,5.5,31.2,5.5c24,0,43.4-8,43.4-17.9v-12.3c0,9.9-19.4,17.9-43.4,17.9
		c-0.7,0-1.4,0-2.2,0c-1.2,0-2.5-0.1-3.7-0.1c-0.5,0-0.9-0.1-1.3-0.1c-2.5-0.2-4.9-0.4-7.2-0.8c-0.4-0.1-0.8-0.1-1.2-0.2
		c-1.3-0.2-2.5-0.4-3.7-0.7c-0.5-0.1-0.9-0.2-1.4-0.3c-0.6-0.1-1.2-0.3-1.8-0.4"/>
	<g id="XMLID_538_">
		<line id="XMLID_540_" class="st0" x1="65.6" y1="96.8" x2="65.6" y2="89.4"/>
		<line id="XMLID_542_" class="st0" x1="85.4" y1="96.8" x2="85.4" y2="89.4"/>
	</g>
	<g id="XMLID_557_">
		<line id="XMLID_558_" class="st0" x1="65.9" y1="39.6" x2="79.2" y2="33.2"/>
		<line id="XMLID_559_" class="st0" x1="63.2" y1="52.9" x2="92.2" y2="39"/>
		<line id="XMLID_560_" class="st0" x1="75.1" y1="58.7" x2="83.9" y2="54.5"/>
	</g>

		<ellipse id="XMLID_561_" transform="matrix(0.8427 -0.5383 0.5383 0.8427 -59.65 34.3436)" class="st0" cx="29" cy="119.3" rx="27.6" ry="18.9"/>
	<path id="XMLID_549_" class="st0" d="M59.3,106c4.8-0.9,10.1-1.4,15.7-1.4c16.7,0,31,4.5,36.8,10.8"/>
</g>
</svg>
