<?xml version="1.0" encoding="utf-8"?>
<!-- Generator: Adobe Illustrator 25.2.3, SVG Export Plug-In . SVG Version: 6.00 Build 0)  -->
<svg version="1.1" id="Mode_Isolation" xmlns="http://www.w3.org/2000/svg" xmlns:xlink="http://www.w3.org/1999/xlink" x="0px"
	 y="0px" viewBox="0 0 25.3 25.3" style="enable-background:new 0 0 25.3 25.3;" xml:space="preserve">
<style type="text/css">
	.st0{fill:none;stroke:#000000;stroke-width:1.5;stroke-linecap:round;stroke-linejoin:round;stroke-miterlimit:10;}
</style>
<g>
	<path class="st0" d="M1.7,14.2c0,0.5,0.2,1.1,0.7,1.5c0.9,0.9,2.5,1.5,4.3,1.5s3.5-0.6,4.3-1.5c0.4-0.4,0.7-1,0.7-1.5"/>
	<path class="st0" d="M11.7,17.2c0,0.6-0.2,1.1-0.7,1.5"/>
	<path class="st0" d="M2.3,18.7c-0.4-0.4-0.7-0.9-0.7-1.5"/>
	<path class="st0" d="M1.7,8.2c0,0.5,0.2,1.1,0.7,1.5c0.9,0.9,2.5,1.5,4.3,1.5s3.5-0.6,4.3-1.5c0.4-0.4,0.7-1,0.7-1.5"/>
	<ellipse class="st0" cx="6.7" cy="5.2" rx="5" ry="3"/>
	<path class="st0" d="M1.7,11.2c0,0.5,0.2,1.1,0.7,1.5c0.9,0.9,2.5,1.5,4.3,1.5s3.5-0.6,4.3-1.5c0.4-0.4,0.7-1,0.7-1.5"/>
	<path class="st0" d="M1.7,20.2c0,1.7,2.2,3,5,3s5-1.3,5-3"/>
	<path class="st0" d="M2.3,18.7c0.9,0.9,2.5,1.5,4.3,1.5s3.5-0.6,4.3-1.5"/>
	<polyline class="st0" points="11.7,20.2 11.7,17.2 11.7,14.2 11.7,11.2 11.7,8.2 11.7,5.2 	"/>
	<polyline class="st0" points="1.7,20.2 1.7,17.2 1.7,14.2 1.7,11.2 1.7,8.2 1.7,5.2 	"/>
	<path class="st0" d="M13.7,20.2c0,0.6,0.2,1.1,0.7,1.5c0.9,0.9,2.5,1.5,4.3,1.5s3.5-0.6,4.3-1.5c0.4-0.4,0.7-0.9,0.7-1.5"/>
	<path class="st0" d="M13.7,14.2c0,0.5,0.2,1.1,0.7,1.5c0.9,0.9,2.5,1.5,4.3,1.5s3.5-0.6,4.3-1.5c0.4-0.4,0.7-1,0.7-1.5"/>
	<ellipse class="st0" cx="18.7" cy="11.2" rx="5" ry="3"/>
	<path class="st0" d="M13.7,17.2c0,0.6,0.2,1.1,0.7,1.5c0.9,0.9,2.5,1.5,4.3,1.5s3.5-0.6,4.3-1.5c0.4-0.4,0.7-0.9,0.7-1.5"/>
	<polyline class="st0" points="23.7,11.2 23.7,14.2 23.7,17.2 23.7,20.2 	"/>
	<polyline class="st0" points="13.7,11.2 13.7,14.2 13.7,17.2 13.7,20.2 	"/>
</g>
</svg>
