<?xml version="1.0" encoding="utf-8"?>
<!-- Generator: Adobe Illustrator 25.2.3, SVG Export Plug-In . SVG Version: 6.00 Build 0)  -->
<svg version="1.1" id="transport" xmlns="http://www.w3.org/2000/svg" xmlns:xlink="http://www.w3.org/1999/xlink" x="0px" y="0px"
	 viewBox="0 0 24.5 24.3" style="enable-background:new 0 0 24.5 24.3;" xml:space="preserve">
	 <defs>
	 	<linearGradient id="gradient" x1="0%" y1="0%" x2="0%" y2="100%">
	 		<stop offset="0%" stop-color="#eece66" />
	 		<stop offset="100%" stop-color="#ca8723" />
	 	</linearGradient>
	 </defs>
	 <style type="text/css">
	 	.st0{fill:none;stroke="url(#gradient)";stroke-width:1.5		;stroke-linecap:round;stroke-linejoin:round;stroke-miterlimit:10;}
	 </style>
<circle class="st0" cx="12.4" cy="12.8" r="10" stroke="url(#gradient)"/>
<g fill="url(#gradient)">
	<path d="M15.3,7.4c0.7,0.7,1.1,1.6,1.1,2.8c0,1.2-0.4,2.1-1.2,2.7c-0.8,0.6-1.8,0.9-3.1,0.9l-0.1,1.4h-1.8l-0.1-2.8h0.6
		c1.2,0,2.1-0.2,2.7-0.5c0.6-0.3,0.9-0.9,0.9-1.8c0-0.6-0.2-1.1-0.5-1.5S13,8.1,12.4,8.1s-1.2,0.2-1.5,0.5c-0.4,0.3-0.6,0.8-0.6,1.5
		H8.4c0-0.7,0.2-1.4,0.5-1.9c0.3-0.6,0.8-1,1.4-1.3c0.6-0.3,1.3-0.5,2.1-0.5C13.6,6.4,14.6,6.7,15.3,7.4z M10.3,18.8
		c-0.3-0.3-0.4-0.6-0.4-0.9c0-0.4,0.1-0.7,0.4-0.9s0.6-0.4,0.9-0.4c0.4,0,0.7,0.1,0.9,0.4s0.4,0.6,0.4,0.9c0,0.4-0.1,0.7-0.4,0.9
		s-0.6,0.4-0.9,0.4C10.8,19.2,10.5,19.1,10.3,18.8z"/>
</g>
</svg>
