<?xml version="1.0" encoding="utf-8"?>
<!-- Generator: Adobe Illustrator 25.2.3, SVG Export Plug-In . SVG Version: 6.00 Build 0)  -->
<svg version="1.1" id="Layer_1" xmlns="http://www.w3.org/2000/svg" xmlns:xlink="http://www.w3.org/1999/xlink" x="0px" y="0px"
	 viewBox="0 0 155.5 54" style="enable-background:new 0 0 155.5 54;" xml:space="preserve">
<style type="text/css">
	.st0{fill:#999999;}
</style>
<polygon class="st0" points="23.8,18 26.3,25.6 34.3,25.6 27.8,30.3 30.3,37.9 23.8,33.2 17.4,37.9 19.8,30.3 13.4,25.6 21.4,25.6 
	"/>
<g>
	<g>
		<path class="st0" d="M64.2,17.3V28h-0.9V17.3h-1.2v-0.7h1.2v-2.9l0.9-1v4h1.2v0.7h-1.2V17.3z"/>
		<path class="st0" d="M74.8,28v-2.6c-0.3,1-0.8,1.7-1.5,2.2s-1.6,0.7-2.6,0.7c-1.3,0-2.2-0.4-3-1.1c-0.7-0.7-1.1-1.7-1.1-3v-7.6
			h0.9V24c0,1.1,0.3,1.9,0.8,2.6c0.6,0.7,1.4,1,2.5,1c0.6,0,1.2-0.1,1.7-0.4s0.9-0.6,1.2-1c0.3-0.4,0.6-0.9,0.7-1.4s0.2-1.1,0.2-1.7
			v-6.4h1V28H74.8z"/>
		<path class="st0" d="M87.1,28v-2c-0.4,0.7-0.9,1.3-1.6,1.7s-1.5,0.6-2.4,0.6c-0.8,0-1.6-0.2-2.2-0.5s-1.2-0.7-1.6-1.2
			s-0.8-1.1-1-1.8c-0.2-0.7-0.4-1.4-0.4-2.2c0-0.8,0.1-1.6,0.3-2.4c0.2-0.7,0.6-1.4,1-2c0.5-0.6,1-1,1.7-1.4
			c0.7-0.3,1.5-0.5,2.4-0.5c0.8,0,1.5,0.2,2.2,0.5s1.2,0.9,1.6,1.5V12H88v16H87.1z M87.1,20.1c0-0.4-0.1-0.8-0.3-1.2
			c-0.2-0.4-0.5-0.7-0.9-1s-0.8-0.5-1.2-0.6c-0.4-0.2-0.9-0.2-1.3-0.2c-0.9,0-1.6,0.2-2.2,0.5s-1.1,0.7-1.4,1.3
			c-0.4,0.5-0.6,1.1-0.8,1.7c-0.2,0.6-0.2,1.3-0.2,1.9c0,0.7,0.1,1.3,0.3,1.9c0.2,0.6,0.5,1.1,0.8,1.6c0.4,0.5,0.8,0.8,1.4,1.1
			c0.5,0.3,1.2,0.4,1.9,0.4c0.5,0,1-0.1,1.5-0.2c0.5-0.2,0.9-0.4,1.3-0.7c0.4-0.3,0.7-0.7,0.9-1.1s0.3-0.9,0.3-1.4v-4
			C87.2,20.1,87.1,20.1,87.1,20.1z"/>
		<path class="st0" d="M91.7,12.4c0,0.2-0.1,0.4-0.3,0.6c-0.2,0.1-0.4,0.2-0.6,0.2s-0.4-0.1-0.6-0.2c-0.2-0.1-0.3-0.3-0.3-0.6
			s0.1-0.4,0.3-0.6c0.2-0.1,0.4-0.2,0.6-0.2s0.4,0.1,0.6,0.2C91.6,12,91.7,12.2,91.7,12.4z M90.4,28V16.5h0.9V28H90.4z"/>
		<path class="st0" d="M103.9,22.3c0,0.8-0.1,1.5-0.3,2.3c-0.2,0.7-0.6,1.4-1,1.9c-0.4,0.6-1,1-1.7,1.3s-1.4,0.5-2.3,0.5
			s-1.6-0.2-2.3-0.5c-0.7-0.3-1.2-0.8-1.7-1.3c-0.4-0.6-0.8-1.2-1-1.9c-0.2-0.7-0.3-1.5-0.3-2.3s0.1-1.5,0.3-2.3
			c0.2-0.7,0.6-1.4,1-1.9c0.4-0.6,1-1,1.7-1.3s1.4-0.5,2.3-0.5s1.6,0.2,2.3,0.5c0.7,0.3,1.2,0.8,1.7,1.3c0.4,0.6,0.8,1.2,1,1.9
			C103.8,20.7,103.9,21.5,103.9,22.3z M103,22.3c0-0.7-0.1-1.3-0.3-1.9c-0.2-0.6-0.5-1.2-0.8-1.7c-0.4-0.5-0.8-0.9-1.4-1.2
			c-0.5-0.3-1.2-0.4-1.9-0.4s-1.4,0.1-1.9,0.4s-1,0.7-1.4,1.2s-0.6,1-0.8,1.7c-0.2,0.6-0.3,1.3-0.3,1.9c0,0.7,0.1,1.3,0.3,1.9
			s0.4,1.2,0.8,1.7s0.8,0.9,1.4,1.2c0.5,0.3,1.2,0.4,1.9,0.4s1.4-0.1,1.9-0.4s1-0.7,1.4-1.2s0.6-1,0.8-1.7S103,22.9,103,22.3z"/>
		<g>
			<path class="st0" d="M50.5,26c0.3-0.2,0.5-0.3,0.8-0.4c-0.1-0.2-0.3-0.4-0.4-0.6c-0.3-0.6-0.4-1.4-0.4-2.3h-1
				c0,1,0.2,1.9,0.5,2.6C50.2,25.6,50.3,25.8,50.5,26z"/>
			<path class="st0" d="M51.7,18.9c0.5,0.3,1.1,0.5,1.7,0.7c0.6,0.2,1.3,0.3,1.9,0.5c0.6,0.1,1.2,0.3,1.9,0.4s1.2,0.3,1.7,0.6
				c0.5,0.3,0.9,0.6,1.2,1s0.5,1,0.5,1.7c0,0.6-0.1,1.2-0.4,1.6c0,0,0,0,0,0.1c0.3,0.1,0.5,0.3,0.8,0.5c0-0.1,0.1-0.1,0.2-0.2
				c0.3-0.6,0.5-1.2,0.5-2s-0.1-1.5-0.4-2s-0.7-0.9-1.1-1.2c-0.5-0.3-1-0.6-1.7-0.7s-1.3-0.4-2-0.5c-0.7-0.2-1.3-0.3-2-0.5
				c-0.6-0.2-1.2-0.4-1.7-0.6s-0.9-0.6-1.2-1C51.2,17,51,16.4,51,15.7c0-0.7,0.1-1.2,0.4-1.6c0.3-0.4,0.6-0.8,1.1-1
				c0.4-0.3,0.9-0.4,1.5-0.5c0.5-0.1,1.1-0.2,1.6-0.2c0.7,0,1.3,0.1,1.9,0.2c0.6,0.1,1.1,0.4,1.5,0.7s0.8,0.7,1,1.3
				c0.3,0.5,0.4,1.2,0.4,1.9h1c0-0.9-0.2-1.7-0.5-2.3s-0.7-1.1-1.2-1.5s-1.1-0.7-1.8-0.8c-0.7-0.2-1.4-0.3-2.2-0.3
				c-0.7,0-1.3,0.1-2,0.2c-0.7,0.1-1.3,0.4-1.8,0.7s-1,0.8-1.3,1.3s-0.5,1.2-0.5,2c0,0.8,0.2,1.4,0.5,1.9S51.2,18.6,51.7,18.9z"/>
		</g>
	</g>
	<g>
		<path class="st0" d="M62.6,42.9c-0.6,0-1.1-0.1-1.5-0.2c-0.5-0.2-0.8-0.4-1.2-0.9c-0.6,0.5-1.2,0.8-1.9,1.1s-1.5,0.4-2.3,0.4
			c-1.2,0-2.3-0.2-3.3-0.6c-1-0.4-1.8-1-2.5-1.8c-0.7-0.7-1.2-1.6-1.6-2.6c-0.4-1-0.5-2.1-0.5-3.3s0.2-2.3,0.5-3.4
			c0.4-1,0.9-1.9,1.6-2.7s1.5-1.3,2.5-1.8s2.1-0.6,3.4-0.6c1,0,1.9,0.1,2.7,0.4s1.5,0.6,2.2,1.2c0.6,0.5,1.1,1.2,1.5,1.9
			c0.4,0.8,0.6,1.7,0.7,2.7h-4.2c-0.1-0.8-0.4-1.4-1-1.9s-1.2-0.7-2-0.7c-0.7,0-1.2,0.2-1.7,0.5s-0.8,0.7-1.1,1.2
			c-0.3,0.5-0.5,1-0.6,1.6c-0.1,0.6-0.2,1.2-0.2,1.7s0.1,1.1,0.2,1.7c0.1,0.6,0.3,1.1,0.6,1.6s0.6,0.8,1.1,1.1
			c0.4,0.3,1,0.4,1.7,0.4s1.3-0.2,1.7-0.6c0.4-0.4,0.7-0.8,1-1.4h-2.7v-3.4h7.2v3.9c0,0.6,0.1,1,0.3,1.2s0.6,0.3,1.1,0.3L62.6,42.9z
			"/>
		<path class="st0" d="M74.4,42.9v-0.7c-0.9,0.7-2.1,1-3.4,1c-0.9,0-1.7-0.1-2.4-0.4s-1.4-0.7-1.9-1.2s-1-1.2-1.3-1.9
			s-0.5-1.6-0.5-2.4c0-0.9,0.2-1.7,0.5-2.5c0.3-0.7,0.7-1.4,1.3-1.9c0.5-0.5,1.2-0.9,1.9-1.2c0.7-0.3,1.6-0.4,2.4-0.4
			c0.6,0,1.2,0.1,1.8,0.2s1.1,0.4,1.6,0.7v-0.6h3.9v11.5h-3.9V42.9z M74.4,35.6c0-0.3-0.1-0.5-0.3-0.7c-0.2-0.2-0.4-0.4-0.7-0.5
			c-0.3-0.1-0.6-0.3-0.9-0.3C72.2,34,71.9,34,71.7,34c-1.1,0-1.9,0.3-2.3,0.9c-0.5,0.6-0.7,1.4-0.7,2.4s0.2,1.8,0.7,2.3
			s1.2,0.8,2.3,0.8c0.3,0,0.6,0,0.9-0.1s0.6-0.2,0.9-0.4s0.5-0.4,0.6-0.6c0.2-0.2,0.3-0.5,0.3-0.8V35.6z"/>
		<path class="st0" d="M91.4,41.1c-0.1,0.3-0.2,0.6-0.3,0.9s-0.4,0.5-0.7,0.6s-0.8,0.2-1.3,0.2h-9.2v-3l5.7-5.6h-5.2v-2.9h10.2v3
			L85,40h3.1c0.4,0,0.8-0.1,0.9-0.2c0.2-0.2,0.3-0.4,0.3-0.8l2.2,1.2C91.5,40.5,91.4,40.8,91.4,41.1z"/>
		<path class="st0" d="M104.6,37.1c0,0.8-0.1,1.6-0.4,2.3c-0.2,0.7-0.6,1.4-1.1,1.9c-0.5,0.6-1.1,1-1.9,1.3s-1.7,0.5-2.7,0.5
			c-1.1,0-2-0.2-2.7-0.5c-0.8-0.3-1.4-0.8-1.9-1.3c-0.5-0.6-0.9-1.2-1.1-1.9s-0.4-1.5-0.4-2.3s0.1-1.6,0.4-2.3
			c0.2-0.7,0.6-1.4,1.1-1.9s1.1-1,1.9-1.3s1.7-0.5,2.7-0.5c1.1,0,2,0.2,2.7,0.5c0.8,0.3,1.4,0.8,1.9,1.3s0.9,1.2,1.1,1.9
			C104.5,35.5,104.6,36.3,104.6,37.1z M100.7,37.1c0-0.4,0-0.7-0.1-1.1c-0.1-0.4-0.2-0.7-0.3-1s-0.4-0.6-0.7-0.8s-0.7-0.3-1.1-0.3
			c-0.5,0-0.8,0.1-1.1,0.3s-0.5,0.5-0.7,0.8s-0.3,0.6-0.3,1c-0.1,0.4-0.1,0.7-0.1,1.1s0,0.7,0.1,1.1c0.1,0.4,0.2,0.7,0.3,1
			c0.2,0.3,0.4,0.6,0.7,0.8c0.3,0.2,0.7,0.3,1.1,0.3c0.5,0,0.8-0.1,1.1-0.3c0.3-0.2,0.5-0.5,0.7-0.8s0.3-0.7,0.3-1
			C100.6,37.8,100.7,37.5,100.7,37.1z"/>
		<path class="st0" d="M106.6,42.9v-16h3.9v16H106.6z"/>
		<path class="st0" d="M117.2,28.5c0,0.3-0.1,0.6-0.2,0.8c-0.1,0.2-0.3,0.5-0.5,0.6c-0.2,0.2-0.5,0.3-0.8,0.4s-0.6,0.1-0.8,0.1
			c-0.3,0-0.6,0-0.8-0.1c-0.3-0.1-0.5-0.2-0.8-0.4c-0.2-0.2-0.4-0.4-0.5-0.6s-0.2-0.5-0.2-0.8s0.1-0.6,0.2-0.8
			c0.1-0.2,0.3-0.5,0.5-0.6c0.2-0.2,0.5-0.3,0.8-0.4s0.6-0.1,0.8-0.1c0.3,0,0.6,0,0.8,0.1s0.5,0.2,0.8,0.4c0.2,0.2,0.4,0.4,0.5,0.6
			C117.2,27.9,117.2,28.2,117.2,28.5z M112.9,42.9V31.3h3.9v11.5h-3.9V42.9z"/>
		<path class="st0" d="M126.9,42.9v-6.2c0-0.3,0-0.6-0.1-0.9c0-0.3-0.1-0.6-0.2-0.8s-0.3-0.4-0.5-0.6c-0.2-0.1-0.5-0.2-0.9-0.2
			s-0.7,0.1-0.9,0.2c-0.3,0.1-0.5,0.3-0.6,0.6s-0.3,0.5-0.4,0.8s-0.1,0.6-0.1,1v6.1h-3.9V31.3h3.9v1.4c0.5-0.7,1-1.1,1.6-1.4
			s1.3-0.4,2.1-0.4c0.6,0,1.1,0.1,1.6,0.3s0.9,0.4,1.3,0.8c0.4,0.3,0.6,0.8,0.8,1.2c0.2,0.5,0.3,1,0.3,1.6v7.9h-4
			C126.9,42.7,126.9,42.9,126.9,42.9z"/>
		<path class="st0" d="M144.1,40.4c-0.3,0.6-0.7,1.1-1.3,1.5c-0.5,0.4-1.1,0.7-1.8,0.9s-1.4,0.3-2.1,0.3c-0.9,0-1.7-0.1-2.4-0.4
			c-0.7-0.3-1.4-0.7-1.9-1.2s-1-1.2-1.3-1.9s-0.5-1.5-0.5-2.4s0.2-1.7,0.5-2.5c0.3-0.7,0.7-1.4,1.3-1.9c0.5-0.5,1.2-1,1.9-1.3
			s1.6-0.5,2.5-0.5c0.7,0,1.4,0.1,2.1,0.3c0.7,0.2,1.2,0.5,1.8,0.8c0.5,0.4,0.9,0.8,1.3,1.4c0.3,0.6,0.5,1.2,0.6,2l-7.9,2.9
			c0.1,0.5,0.3,1,0.7,1.3c0.3,0.3,0.8,0.5,1.5,0.5c0.6,0,1-0.2,1.4-0.6c0.3-0.4,0.6-0.8,0.6-1.4h3.7
			C144.6,39.1,144.4,39.8,144.1,40.4z M139.1,33.9c-0.7,0-1.3,0.2-1.6,0.6c-0.3,0.4-0.5,0.9-0.6,1.5c0,0,0,0.1,0,0.2l3.9-1.4
			C140.4,34.2,139.8,33.9,139.1,33.9z"/>
	</g>
</g>
</svg>
