<?xml version="1.0" encoding="utf-8"?>
<!-- Generator: Adobe Illustrator 25.2.3, SVG Export Plug-In . SVG Version: 6.00 Build 0)  -->
<svg version="1.1" id="Mode_Isolation" xmlns="http://www.w3.org/2000/svg" xmlns:xlink="http://www.w3.org/1999/xlink" x="0px"
	 y="0px" viewBox="0 0 262 262" style="enable-background:new 0 0 262 262;" xml:space="preserve">
	 <defs>
	 	<linearGradient id="gradient" x1="0%" y1="0%" x2="0%" y2="100%">
	 		<stop offset="0%" stop-color="#eece66" />
	 		<stop offset="100%" stop-color="#ca8723" />
	 	</linearGradient>
	 </defs>
	 <style type="text/css">
	 	.st0{fill="url(#gradient)";stroke-width:3;stroke-linecap:round;stroke-linejoin:round;stroke-miterlimit:10;}
	 </style>
<g fill="url(#gradient)">
	<path class="st0" d="M84.6,232.6c94.3,0,145.9-78.2,145.9-145.9c0-2.2,0-4.4-0.1-6.6c10-7.2,18.7-16.3,25.6-26.6
		c-9.2,4.1-19.1,6.8-29.5,8.1c10.6-6.3,18.7-16.4,22.6-28.4c-9.9,5.9-20.9,10.1-32.6,12.4c-9.4-10-22.7-16.2-37.4-16.2
		c-28.3,0-51.3,23-51.3,51.3c0,4,0.5,7.9,1.3,11.7C86.5,90.3,48.7,69.8,23.4,38.8c-4.4,7.6-6.9,16.4-6.9,25.8
		c0,17.8,9.1,33.5,22.8,42.7c-8.4-0.3-16.3-2.6-23.2-6.4c0,0.2,0,0.4,0,0.7c0,24.8,17.7,45.6,41.1,50.3c-4.3,1.2-8.8,1.8-13.5,1.8
		c-3.3,0-6.5-0.3-9.6-0.9c6.5,20.4,25.5,35.2,47.9,35.6c-17.6,13.8-39.7,22-63.7,22c-4.1,0-8.2-0.2-12.2-0.7
		C28.7,224.1,55.7,232.6,84.6,232.6"/>
</g>
</svg>
