<?xml version="1.0" encoding="utf-8"?>
<!-- Generator: Adobe Illustrator 25.2.3, SVG Export Plug-In . SVG Version: 6.00 Build 0)  -->
<svg version="1.1" id="Mode_Isolation" xmlns="http://www.w3.org/2000/svg" xmlns:xlink="http://www.w3.org/1999/xlink" x="0px"
	 y="0px" viewBox="0 0 262 262" style="enable-background:new 0 0 262 262;" xml:space="preserve">

	 <defs>
		<linearGradient id="gradient" x1="0%" y1="0%" x2="0%" y2="100%">
			<stop offset="0%" stop-color="#eece66" />
			<stop offset="100%" stop-color="#ca8723" />
		</linearGradient>
	 </defs>
	 <style type="text/css">
		.st0{fill="url(#gradient)";stroke-width:3;stroke-linecap:round;stroke-linejoin:round;stroke-miterlimit:10;}
	 </style>
	 <g fill="url(#gradient)">
<path d="M249.4,71.5c-2.8-10.6-11.2-19-21.9-21.8c-19.3-5.2-96.6-5.2-96.6-5.2s-77.3,0-96.6,5.2c-10.6,2.8-19,11.2-21.9,21.8
	C7.4,90.8,7.4,131,7.4,131s0,40.2,5.2,59.5c2.8,10.6,11.2,19,21.9,21.8c19.3,5.2,96.6,5.2,96.6,5.2s77.3,0,96.6-5.2
	c10.6-2.8,19-11.2,21.9-21.8c5.2-19.3,5.2-59.5,5.2-59.5S254.6,90.8,249.4,71.5z M106.3,168.1V93.9l64.2,37.1L106.3,168.1z"/>
</g>
</svg>
