<?xml version="1.0" encoding="utf-8"?>
<!-- Generator: Adobe Illustrator 25.2.3, SVG Export Plug-In . SVG Version: 6.00 Build 0)  -->
<svg version="1.1" id="transport" xmlns="http://www.w3.org/2000/svg" xmlns:xlink="http://www.w3.org/1999/xlink" x="0px" y="0px"
	 viewBox="0 0 141.6 173" style="enable-background:new 0 0 141.6 173;" xml:space="preserve">

<defs>
	<linearGradient id="gradient" x1="0%" y1="0%" x2="0%" y2="100%">
		<stop offset="0%" stop-color="#eece66" />
		<stop offset="100%" stop-color="#ca8723" />
	</linearGradient>
</defs>
<style type="text/css">
	.st0{fill:none;stroke="url(#gradient)";stroke-width:3;stroke-linecap:round;stroke-linejoin:round;stroke-miterlimit:10;}
</style>
<g id="XMLID_403_" stroke="url(#gradient)">
	<g id="XMLID_452_">
		<line id="XMLID_475_" class="st0" x1="80" y1="35.2" x2="89.8" y2="31.9" />
		<line id="XMLID_474_" class="st0" x1="109.7" y1="25.3" x2="103.7" y2="27.8"/>
		<path id="XMLID_473_" class="st0 " d="M131.2,67.1c-1.1-2.4-2.1-5-3.1-7.8c-3.7-10.4-5.3-20.2-5.9-28.5c-1.7-0.1-5.2-0.6-8.9-2.8
			c-3.9-2.4-5.9-5.4-6.8-7c-4.4,1.5-9.5,3-15.3,4.1c-8.3,1.6-15.8,2-21.9,1.9"/>
		<path id="XMLID_472_" class="st0" d="M74.2,34.1l5.7,1.1L78.6,39c-0.6,1.1-0.4,2.5,0.4,3.4c3.8,4.4,8.7,9.1,15.1,13.3
			c0.7,0.5,1.7,0.6,2.5,0.4l4.9-1.2l0.7,3.9c0.2,1,0.9,1.9,1.8,2.4c6.9,3,13.3,4.5,18.4,5.3c0.7,0.1,1.2-0.6,0.9-1.2
			c-0.8-1.6-1.9-4.2-2.4-6.3"/>
		<line id="XMLID_471_" class="st0" x1="101.5" y1="54.9" x2="104.5" y2="49.2"/>
		<path id="XMLID_470_" class="st0" d="M117.3,30c-0.2,2.5-0.3,5.3-0.2,8.3c0.1,1.7,0.2,3.4,0.4,4.9"/>
		<polyline id="XMLID_466_" class="st0" points="122.2,30.9 125.7,20.1 114.8,13.4 106.6,21.2 		"/>
		<line id="XMLID_513_" class="st0" x1="135.6" y1="2.6" x2="125.7" y2="20.1"/>
		<line id="XMLID_509_" class="st0" x1="122.3" y1="2.6" x2="114.8" y2="13.4"/>
	</g>
	<g id="XMLID_457_">
		<g id="XMLID_453_">
			<path id="XMLID_458_" class="st0" d="M132,85.1c4.5,1.5,7.1,3.1,7.1,4.8c0,3-7.8,5.8-20.3,7.7c-12.4,2-29.4,3.2-48.2,3.2
				C32.7,100.8,2,95.9,2,89.9c0-1.8,2.7-3.5,7.4-4.9"/>
			<path id="XMLID_446_" class="st0" d="M139.1,104.6v55.6c0,6-30.7,10.9-68.5,10.9S2,166.2,2,160.1v-55.6"/>
			<path id="XMLID_460_" class="st0" d="M139.1,89.9v15.5c0,6-30.7,10.9-68.5,10.9S2,111.4,2,105.4V89.9c0,6,30.7,10.9,68.5,10.9
				c18.8,0,35.9-1.2,48.2-3.2C131.3,95.7,139.1,92.9,139.1,89.9z"/>
		</g>
		<path id="XMLID_454_" class="st0" d="M29.4,84.8c0,3.8-3.1,6.9-7,6.9c-3.8,0-7-3.1-7-6.9c0-3.8,3.1-6.9,7-6.9
			C26.2,77.9,29.4,81,29.4,84.8z"/>
		<path id="XMLID_464_" class="st0" d="M95.9,74.9c0,3.8-3.1,6.9-7,6.9c-3.8,0-7-3.1-7-6.9c0-3.8,3.1-6.9,7-6.9
			C92.8,67.9,95.9,71,95.9,74.9z"/>
		<path id="XMLID_468_" class="st0" d="M113.6,82.5c0,3.8-3.1,6.9-7,6.9c-3.8,0-7-3.1-7-6.9c0-3.8,3.1-6.9,7-6.9
			C110.5,75.6,113.6,78.7,113.6,82.5z"/>
		<path id="XMLID_461_" class="st0" d="M64.2,89.2c0,3.8-3.1,6.9-7,6.9c-3.8,0-7-3.1-7-6.9c0-3.8,3.1-6.9,7-6.9
			C61.1,82.2,64.2,85.3,64.2,89.2z"/>
		<path id="XMLID_459_" class="st0" d="M37.5,81.2c3.8,0,7,3.1,7,6.9c0,3.8-3.1,6.9-7,6.9c-2.2,0-4.2-1-5.5-2.6"/>
		<path id="XMLID_469_" class="st0" d="M120.5,78c3.8,0,7,3.1,7,6.9s-3.1,6.9-7,6.9c-1.2,0-2.3-0.3-3.3-0.8"/>
		<path id="XMLID_462_" class="st0" d="M68.3,84.2c2.2-3.2,6.5-4,9.7-1.8c3.2,2.2,4,6.5,1.8,9.6c-1.3,1.8-3.2,2.9-5.3,3"/>
		<path id="XMLID_455_" class="st0" d="M32,76.1c0-3.8,3.1-6.9,7-6.9c3.8,0,7,3.1,7,6.9"/>
		<path id="XMLID_467_" class="st0" d="M58,75.6c0-3.8,3.1-6.9,7-6.9c3.8,0,7,3.1,7,6.9"/>
		<path id="XMLID_463_" class="st0" d="M85.3,94c0-3.8,3.1-6.9,7-6.9c3.8,0,7,3.1,7,6.9"/>
	</g>
</g>
</svg>
