<?xml version="1.0" encoding="utf-8"?>
<!-- Generator: Adobe Illustrator 25.2.3, SVG Export Plug-In . SVG Version: 6.00 Build 0)  -->
<svg version="1.1" id="transport" xmlns="http://www.w3.org/2000/svg" xmlns:xlink="http://www.w3.org/1999/xlink" x="0px" y="0px"
	 viewBox="0 0 205.1 152.3" style="enable-background:new 0 0 205.1 152.3;" xml:space="preserve">
	 <defs>
	 	<linearGradient id="gradient" x1="0%" y1="0%" x2="0%" y2="100%">
	 		<stop offset="0%" stop-color="#eece66" />
	 		<stop offset="100%" stop-color="#ca8723" />
	 	</linearGradient>
	 </defs>
	 <style type="text/css">
	 	.st0{fill:none;stroke="url(#gradient)";stroke-width:3;stroke-linecap:round;stroke-linejoin:round;stroke-miterlimit:10;}
	 </style>
<g id="XMLID_412_"  stroke="url(#gradient)">
	<g id="XMLID_411_">
		<path id="XMLID_421_" class="st0" d="M51.8,55l-4.8-12.6c-5.4-14-8.5-14.7-8.5-14.7c0.1,3.5-3.2,10.3-4.5,13
			c-0.3,0.6-0.3,1.3-0.1,1.9l6.3,16.7"/>
		<path id="XMLID_489_" class="st0" d="M61.5,73L55,55.6c-0.3-0.9-1.3-1.3-2.1-1l-1,0.4l-11.5,4.3l-1,0.4c-0.9,0.3-1.3,1.3-1,2.2
			L43.7,76"/>
	</g>
	<g id="XMLID_398_">
		<path id="XMLID_402_" class="st0" d="M135.8,25.7c0.9,0.2,1.9-0.4,2.3-1.5c1.2-3.8,3.2-12.6-2-21.3l0,0
			c-8.4,5.5-10.5,14.3-11.1,18.3c-0.2,1.1,0.4,2.2,1.4,2.4L135.8,25.7z"/>
		<g id="XMLID_399_">
			<line id="XMLID_483_" class="st0" x1="124.2" y1="33.2" x2="121.3" y2="50"/>
			<line id="XMLID_413_" class="st0" x1="133.7" y1="35.4" x2="125" y2="72"/>
			<polyline id="XMLID_400_" class="st0" points="125.8,23.4 124.2,33.3 133.6,35.4 136.4,25.9 			"/>
		</g>
	</g>
	<g id="XMLID_381_">
		<line id="XMLID_396_" class="st0" x1="194.5" y1="56.4" x2="184.2" y2="56.9"/>
		<line id="XMLID_395_" class="st0" x1="163.5" y1="58" x2="169.9" y2="57.2"/>
		<path id="XMLID_394_" class="st0" d="M154.2,12.3c0.4,2.6,0.7,5.4,0.9,8.2c0.8,11-0.3,20.7-1.9,28.8c1.6,0.6,4.8,1.9,7.7,5
			c3,3.3,4.2,6.8,4.6,8.4c4.6-0.3,9.8-0.3,15.6,0.1c8.3,0.7,15.5,2.2,21.4,3.9"/>
		<path id="XMLID_393_" class="st0" d="M199.6,58.9l-5.1-2.6l2.3-3.2c0.9-0.9,1.1-2.3,0.5-3.4c-2.4-5.2-5.9-11-10.8-16.7
			c-0.6-0.7-1.4-1-2.3-1.1l-5-0.1l0.4-3.9c0.1-1-0.3-2.1-1.1-2.7c-5.7-4.7-11.4-7.8-16.1-9.9c-0.6-0.3-1.3,0.2-1.1,0.9
			c0.3,1.7,0.7,4.5,0.7,6.7"/>
		<line id="XMLID_392_" class="st0" x1="179.2" y1="31.8" x2="174.9" y2="36.5"/>
		<path id="XMLID_391_" class="st0" d="M157.6,51.6c0.9-2.3,1.7-5,2.4-7.9c0.4-1.7,0.7-3.3,0.9-4.8"/>
		<polyline id="XMLID_389_" class="st0" points="153.1,49.3 147,58.7 155.5,68.1 165.4,62.8 		"/>
		<line id="XMLID_388_" class="st0" x1="132.9" y1="72.9" x2="147" y2="58.7"/>
		<line id="XMLID_385_" class="st0" x1="145.5" y1="76.4" x2="155.5" y2="68.1"/>
	</g>
	<path id="XMLID_485_" class="st0" d="M29.7,66.5l-3.8,5.7c-2.7,4.1,0.2,9.6,5.2,9.6h12.2h15h9.9h91.4c4.9,0,7.9-5.5,5.2-9.6l-0.6-1
		"/>
	<path id="XMLID_379_" class="st0" d="M52.4,38.1c6.3-9.4,17.1-15.6,29.3-15.6c12.9,0,24.2,6.9,30.4,17.3c3.1,5.3,4.9,11.4,4.9,18
		c0,6.4-1.7,12.4-4.7,17.6"/>
	<path id="XMLID_378_" class="st0" d="M165.9,74.2c2.5,14.2,4.9,28.4,7.4,42.7c2.2,12.9-6.4,25.2-19.3,27.4c-17.5,3-37.9,5-60.7,4.9
		c-21-0.1-40-2.1-56.4-4.9c-12.9-2.2-21.7-14.4-19.4-27.4l1.8-11.1"/>
	<path id="XMLID_377_" class="st0" d="M121.4,119.4v-12.1c0-4.1-3.1-7.3-6.9-7.3H76.2c-3.8,0-6.9,3.3-6.9,7.3v12
		c0,5.6,3.8,10.4,9,11.4c5.2,0.9,11.2,1.5,17.8,1.5c5.9,0,11.3-0.6,16.1-1.4C117.5,129.9,121.4,125,121.4,119.4z"/>
	<path id="XMLID_387_" class="st0" d="M25.5,79.8c0,2.5-2.1,4.6-4.6,4.6c-2.5,0-4.6-2.1-4.6-4.6s2.1-4.6,4.6-4.6
		C23.4,75.2,25.5,77.2,25.5,79.8z"/>
	<path id="XMLID_495_" class="st0" d="M20.1,84.3c0,4.4-4.9,14.9-6.4,17.1c-1.8,2.7-5.5,3.4-8.1,1.5c-2.7-1.8-3.4-5.5-1.5-8.2
		c1.1-1.6,5.4-6.3,9.3-9.4"/>
</g>
</svg>
